<svg id="svg" version="1.1" xmlns="http://www.w3.org/2000/svg" xmlns:xlink="http://www.w3.org/1999/xlink" width="400" height="85.15864892528147" viewBox="0, 0, 400,85.15864892528147"><g id="svgg"><path id="path0" d="M33.561 14.749 C 33.504 14.896,32.982 14.968,31.831 14.988 C 30.925 15.003,30.010 15.061,29.800 15.115 C 29.589 15.169,29.023 15.248,28.542 15.289 C 28.060 15.330,27.667 15.416,27.667 15.479 C 27.667 15.587,27.444 15.627,26.260 15.731 C 25.990 15.754,25.740 15.862,25.704 15.970 C 25.668 16.078,25.398 16.167,25.103 16.167 C 24.808 16.167,24.492 16.241,24.401 16.332 C 24.310 16.423,24.023 16.516,23.764 16.537 C 23.506 16.558,23.257 16.671,23.212 16.788 C 23.168 16.905,22.877 17.000,22.566 17.000 C 22.254 17.000,22.000 17.067,22.000 17.149 C 22.000 17.230,21.813 17.344,21.583 17.402 C 21.354 17.459,21.167 17.580,21.167 17.670 C 21.167 17.760,20.979 17.833,20.750 17.833 C 20.521 17.833,20.333 17.908,20.333 18.000 C 20.333 18.092,20.181 18.167,19.995 18.167 C 19.809 18.167,19.613 18.279,19.560 18.417 C 19.508 18.554,19.334 18.667,19.174 18.667 C 18.834 18.667,17.883 19.118,17.742 19.347 C 17.688 19.434,17.573 19.462,17.487 19.409 C 17.401 19.356,17.286 19.429,17.231 19.573 C 17.176 19.716,17.027 19.833,16.899 19.833 C 16.771 19.833,16.667 19.913,16.667 20.010 C 16.667 20.107,16.592 20.140,16.500 20.083 C 16.408 20.027,16.333 20.064,16.333 20.167 C 16.333 20.269,16.258 20.306,16.165 20.249 C 16.073 20.192,15.953 20.263,15.898 20.406 C 15.843 20.549,15.711 20.667,15.605 20.667 C 15.500 20.667,15.211 20.854,14.964 21.083 C 14.717 21.313,14.464 21.500,14.401 21.500 C 14.339 21.500,14.114 21.688,13.902 21.917 C 13.690 22.146,13.436 22.333,13.338 22.333 C 13.241 22.333,12.906 22.596,12.594 22.917 C 12.283 23.238,11.947 23.500,11.847 23.500 C 11.748 23.500,11.667 23.580,11.667 23.679 C 11.667 23.909,11.243 24.333,11.012 24.333 C 10.914 24.333,10.833 24.398,10.833 24.477 C 10.833 24.677,8.711 26.833,8.515 26.833 C 8.427 26.833,8.260 27.096,8.144 27.417 C 8.028 27.738,7.873 28.000,7.800 28.000 C 7.727 28.000,7.667 28.113,7.667 28.250 C 7.667 28.387,7.581 28.500,7.477 28.500 C 7.246 28.500,6.846 29.001,6.839 29.300 C 6.836 29.419,6.646 29.690,6.417 29.902 C 6.188 30.114,6.000 30.411,6.000 30.561 C 6.000 30.711,5.883 30.833,5.740 30.833 C 5.597 30.833,5.521 30.900,5.572 30.981 C 5.622 31.062,5.551 31.222,5.415 31.335 C 5.278 31.448,5.167 31.675,5.167 31.840 C 5.167 32.004,5.088 32.165,4.993 32.197 C 4.897 32.229,4.806 32.423,4.790 32.627 C 4.775 32.832,4.666 33.000,4.548 33.000 C 4.430 33.000,4.333 33.188,4.333 33.417 C 4.333 33.646,4.258 33.833,4.167 33.833 C 4.075 33.833,4.000 33.975,4.000 34.149 C 4.000 34.322,3.891 34.506,3.758 34.557 C 3.618 34.611,3.544 34.797,3.583 35.000 C 3.622 35.203,3.549 35.389,3.409 35.443 C 3.274 35.494,3.167 35.750,3.167 36.018 C 3.167 36.325,3.080 36.500,2.928 36.500 C 2.744 36.500,2.722 36.611,2.830 36.988 C 2.934 37.352,2.910 37.499,2.735 37.566 C 2.595 37.620,2.500 37.891,2.500 38.235 C 2.500 38.553,2.425 38.860,2.333 38.917 C 2.076 39.076,2.136 39.500,2.417 39.500 C 2.554 39.500,2.667 39.406,2.667 39.291 C 2.667 39.090,3.164 38.819,3.958 38.587 C 4.165 38.527,4.333 38.408,4.333 38.322 C 4.333 38.237,4.486 38.167,4.674 38.167 C 4.861 38.167,5.175 38.017,5.372 37.833 C 5.569 37.650,5.848 37.500,5.993 37.500 C 6.138 37.500,6.532 37.313,6.869 37.083 C 7.206 36.854,7.559 36.667,7.652 36.667 C 7.745 36.667,8.038 36.456,8.302 36.198 C 8.566 35.940,8.999 35.648,9.266 35.549 C 9.532 35.450,10.106 35.243,10.542 35.088 C 10.977 34.933,11.333 34.742,11.333 34.665 C 11.333 34.587,11.727 34.375,12.208 34.194 C 12.690 34.012,13.308 33.745,13.583 33.599 C 13.858 33.454,14.166 33.335,14.266 33.334 C 14.521 33.333,15.473 32.845,15.590 32.656 C 15.643 32.570,15.870 32.500,16.095 32.500 C 16.320 32.500,16.635 32.431,16.794 32.347 C 17.380 32.038,18.306 31.667,18.490 31.667 C 18.595 31.667,18.990 31.508,19.370 31.315 C 19.749 31.121,20.290 30.944,20.571 30.920 C 20.853 30.897,21.330 30.775,21.632 30.650 C 22.091 30.459,22.204 30.458,22.320 30.645 C 22.417 30.801,22.493 30.813,22.572 30.684 C 22.635 30.583,22.869 30.500,23.093 30.500 C 23.338 30.500,23.500 30.403,23.500 30.258 C 23.500 30.062,23.817 30.017,25.160 30.022 C 26.073 30.025,26.904 29.976,27.006 29.913 C 27.294 29.735,31.486 29.675,31.592 29.847 C 31.644 29.931,32.057 30.000,32.510 30.000 C 33.131 30.000,33.333 30.062,33.333 30.250 C 33.333 30.436,33.529 30.500,34.095 30.500 C 34.843 30.500,35.184 30.678,35.377 31.170 C 35.453 31.364,35.476 31.355,35.487 31.125 C 35.503 30.765,36.167 30.724,36.167 31.083 C 36.167 31.221,36.279 31.333,36.417 31.333 C 36.554 31.333,36.667 31.408,36.667 31.500 C 36.667 31.592,36.854 31.667,37.083 31.667 C 37.343 31.667,37.500 31.761,37.500 31.917 C 37.500 32.054,37.599 32.167,37.721 32.167 C 37.842 32.167,38.118 32.354,38.333 32.583 C 38.549 32.813,38.808 33.000,38.909 33.000 C 39.010 33.000,39.201 33.150,39.333 33.333 C 39.465 33.517,39.670 33.667,39.787 33.667 C 39.904 33.667,40.000 33.779,40.000 33.917 C 40.000 34.054,40.119 34.167,40.265 34.167 C 40.544 34.167,41.152 34.794,41.161 35.092 C 41.172 35.423,41.583 36.164,41.757 36.165 C 41.853 36.166,42.234 36.448,42.603 36.792 C 42.973 37.135,43.466 37.518,43.698 37.641 C 43.931 37.764,44.316 38.046,44.553 38.266 C 44.791 38.486,45.046 38.667,45.119 38.667 C 45.193 38.667,45.456 38.854,45.703 39.083 C 45.950 39.313,46.193 39.500,46.242 39.500 C 46.292 39.500,46.721 39.779,47.195 40.120 C 48.189 40.834,48.978 41.283,50.500 42.001 C 51.096 42.283,51.863 42.653,52.205 42.824 L 52.826 43.135 53.196 42.526 C 53.400 42.191,53.701 41.795,53.866 41.647 C 54.032 41.499,54.167 41.325,54.167 41.260 C 54.167 41.196,54.260 41.038,54.375 40.911 C 54.862 40.368,55.000 40.172,55.000 40.025 C 55.000 39.939,55.112 39.826,55.250 39.773 C 55.653 39.618,55.543 39.323,54.830 38.644 C 54.461 38.294,54.161 37.968,54.163 37.920 C 54.177 37.557,54.146 37.493,54.000 37.583 C 53.908 37.640,53.833 37.540,53.833 37.361 C 53.833 37.182,53.716 36.991,53.573 36.936 C 53.429 36.881,53.359 36.760,53.416 36.668 C 53.473 36.576,53.403 36.500,53.260 36.500 C 53.115 36.500,53.000 36.359,53.000 36.181 C 53.000 36.005,52.928 35.836,52.841 35.806 C 52.753 35.775,52.663 35.469,52.640 35.125 C 52.615 34.746,52.514 34.500,52.383 34.500 C 52.204 34.500,52.112 34.072,52.181 33.560 C 52.189 33.502,52.116 33.405,52.020 33.346 C 51.924 33.286,51.824 32.809,51.798 32.286 C 51.766 31.661,51.678 31.334,51.542 31.334 C 51.398 31.333,51.333 31.020,51.333 30.323 C 51.333 29.768,51.400 29.355,51.483 29.406 C 51.699 29.540,51.833 29.082,51.833 28.207 C 51.833 27.558,51.967 26.918,52.275 26.083 C 52.309 25.992,52.481 25.692,52.656 25.417 C 52.832 25.142,52.981 24.793,52.988 24.643 C 52.995 24.492,53.117 24.324,53.261 24.269 C 53.404 24.214,53.474 24.093,53.417 24.001 C 53.360 23.909,53.431 23.833,53.573 23.833 C 53.771 23.833,53.833 23.651,53.833 23.073 C 53.833 22.609,53.898 22.354,54.000 22.417 C 54.092 22.473,54.167 22.417,54.167 22.291 C 54.167 22.044,55.036 21.333,55.339 21.333 C 55.441 21.333,55.499 21.202,55.468 21.042 C 55.433 20.865,55.257 20.748,55.022 20.746 C 54.809 20.744,54.540 20.614,54.425 20.457 C 54.311 20.300,54.167 20.221,54.107 20.282 C 54.046 20.343,53.843 20.227,53.655 20.026 C 53.467 19.824,53.243 19.703,53.157 19.756 C 53.071 19.809,53.000 19.774,53.000 19.677 C 53.000 19.579,52.896 19.500,52.768 19.500 C 52.640 19.500,52.492 19.387,52.440 19.250 C 52.387 19.112,52.187 19.000,51.995 19.000 C 51.804 19.000,51.693 18.925,51.750 18.833 C 51.808 18.740,51.674 18.667,51.444 18.667 C 51.220 18.667,50.992 18.554,50.940 18.417 C 50.887 18.279,50.650 18.167,50.412 18.167 C 50.167 18.167,50.025 18.095,50.083 18.000 C 50.172 17.856,49.788 17.757,49.601 17.875 C 49.565 17.898,49.369 17.767,49.166 17.583 C 48.963 17.400,48.662 17.272,48.497 17.300 C 48.331 17.327,48.148 17.271,48.088 17.175 C 48.029 17.079,47.797 17.000,47.573 17.000 C 47.350 17.000,47.167 16.928,47.167 16.841 C 47.167 16.753,46.903 16.632,46.581 16.572 C 46.260 16.512,45.955 16.396,45.905 16.314 C 45.855 16.233,45.518 16.167,45.157 16.167 C 44.520 16.167,44.284 15.957,44.708 15.769 C 44.823 15.718,44.575 15.718,44.157 15.769 C 43.613 15.835,43.342 15.794,43.201 15.625 C 43.077 15.475,42.621 15.375,41.961 15.351 C 41.386 15.331,40.892 15.244,40.861 15.157 C 40.831 15.071,39.993 15.000,39.000 15.000 C 37.821 15.000,37.173 14.936,37.133 14.814 C 37.040 14.536,33.666 14.475,33.561 14.749 M56.888 42.089 C 56.597 42.409,56.310 42.894,56.250 43.168 L 56.140 43.667 57.598 43.667 C 58.400 43.667,59.550 43.589,60.153 43.493 C 60.756 43.398,61.494 43.282,61.792 43.236 C 62.090 43.189,62.333 43.090,62.333 43.015 C 62.333 42.818,60.988 42.333,60.441 42.333 C 60.185 42.333,59.870 42.228,59.741 42.098 C 59.612 41.969,59.355 41.902,59.172 41.950 C 58.958 42.006,58.800 41.940,58.734 41.769 C 58.536 41.251,57.485 41.433,56.888 42.089 " stroke="none" fill="#f07cb6" fill-rule="evenodd"></path><path id="path1" d="M19.780 38.064 C 19.718 38.227,19.787 38.271,20.012 38.212 C 20.381 38.115,20.448 37.833,20.101 37.833 C 19.973 37.833,19.829 37.937,19.780 38.064 M43.291 38.354 C 43.156 38.429,42.497 38.535,41.828 38.588 C 41.158 38.642,40.478 38.756,40.316 38.843 C 40.154 38.929,39.726 39.000,39.365 39.000 C 38.984 39.000,38.620 39.105,38.500 39.250 C 38.254 39.546,37.887 39.577,37.798 39.309 C 37.750 39.166,37.645 39.166,37.378 39.309 C 37.182 39.414,36.842 39.500,36.622 39.500 C 36.402 39.500,36.167 39.555,36.099 39.623 C 35.958 39.764,35.888 39.774,34.708 39.808 C 34.053 39.827,33.833 39.896,33.833 40.083 C 33.833 40.404,33.435 40.406,33.170 40.088 C 32.991 39.872,32.906 39.874,32.463 40.102 C 32.186 40.246,31.584 40.398,31.125 40.440 C 30.666 40.483,29.906 40.664,29.437 40.842 C 28.967 41.021,28.302 41.167,27.958 41.167 C 27.571 41.167,27.332 41.246,27.331 41.375 C 27.329 41.515,27.277 41.502,27.172 41.336 C 27.043 41.133,26.923 41.123,26.508 41.279 C 26.200 41.395,25.964 41.409,25.905 41.314 C 25.852 41.228,25.720 41.169,25.612 41.182 C 25.210 41.232,24.992 41.159,24.696 40.875 C 24.528 40.715,24.041 40.404,23.612 40.185 C 23.184 39.966,22.833 39.722,22.833 39.644 C 22.833 39.565,22.726 39.500,22.595 39.500 C 22.464 39.500,22.236 39.379,22.087 39.230 C 21.939 39.082,21.765 39.017,21.700 39.086 C 21.636 39.156,21.678 39.246,21.795 39.288 C 21.911 39.329,22.112 39.469,22.241 39.598 C 22.370 39.728,22.529 39.833,22.594 39.833 C 22.659 39.833,22.892 40.028,23.112 40.265 C 23.340 40.511,23.618 40.657,23.756 40.604 C 23.890 40.553,24.000 40.589,24.000 40.685 C 24.000 40.995,24.964 41.833,25.321 41.833 C 25.511 41.833,25.667 41.933,25.667 42.055 C 25.667 42.177,25.873 42.381,26.125 42.508 C 26.377 42.636,26.705 42.855,26.855 42.995 C 27.399 43.507,27.924 43.921,28.250 44.094 C 28.676 44.320,28.622 44.889,28.126 45.403 C 27.545 46.004,27.167 46.491,27.167 46.637 C 27.167 46.710,27.015 46.933,26.829 47.132 C 26.463 47.526,26.521 48.333,26.917 48.333 C 27.035 48.333,27.174 48.446,27.227 48.583 C 27.280 48.721,27.438 48.833,27.578 48.833 C 27.718 48.833,27.833 48.908,27.833 49.000 C 27.833 49.092,27.950 49.167,28.093 49.167 C 28.236 49.167,28.310 49.236,28.257 49.321 C 28.205 49.406,28.294 49.518,28.456 49.570 C 28.618 49.622,28.968 49.853,29.234 50.082 C 29.501 50.312,29.788 50.500,29.873 50.500 C 29.958 50.500,30.283 50.762,30.594 51.083 C 30.906 51.404,31.218 51.669,31.289 51.671 C 31.525 51.680,32.661 52.616,32.559 52.718 C 32.504 52.774,32.768 52.943,33.146 53.094 C 33.524 53.246,33.833 53.436,33.833 53.518 C 33.833 53.600,33.912 53.667,34.008 53.667 C 34.103 53.667,34.369 53.854,34.598 54.083 C 34.828 54.313,35.134 54.500,35.280 54.500 C 35.426 54.500,35.719 54.313,35.931 54.083 C 36.144 53.854,36.475 53.667,36.669 53.667 C 36.862 53.667,36.973 53.592,36.917 53.500 C 36.860 53.408,36.954 53.333,37.125 53.333 C 37.296 53.333,37.579 53.229,37.754 53.101 C 37.929 52.973,38.235 52.898,38.435 52.934 C 38.651 52.974,38.836 52.899,38.894 52.750 C 39.010 52.447,42.431 52.376,42.530 52.674 C 42.562 52.769,42.774 52.868,43.002 52.894 C 43.230 52.920,43.628 53.030,43.886 53.137 C 44.558 53.418,45.167 53.388,45.167 53.073 C 45.167 52.931,45.228 52.852,45.304 52.898 C 45.463 52.997,46.000 52.417,46.000 52.147 C 46.000 51.970,46.254 51.650,47.196 50.643 C 47.441 50.381,47.560 50.167,47.462 50.167 C 47.363 50.167,47.445 50.026,47.643 49.854 C 47.986 49.556,48.527 48.902,49.240 47.923 C 49.417 47.679,49.698 47.322,49.865 47.131 C 50.031 46.939,50.167 46.715,50.167 46.632 C 50.167 46.550,50.393 46.242,50.671 45.949 C 50.948 45.656,51.218 45.248,51.272 45.042 C 51.326 44.835,51.474 44.667,51.601 44.667 C 51.729 44.667,51.833 44.606,51.833 44.531 C 51.833 44.457,51.978 44.241,52.155 44.051 C 52.614 43.558,52.656 43.108,52.250 43.039 C 51.692 42.945,49.747 42.028,47.917 40.997 C 47.275 40.636,46.637 40.288,46.500 40.224 C 46.362 40.160,46.212 40.064,46.167 40.011 C 46.005 39.822,44.672 39.000,44.528 39.000 C 44.448 39.000,44.192 38.824,43.959 38.608 C 43.676 38.346,43.455 38.262,43.291 38.354 M20.951 38.654 C 21.346 39.025,21.500 39.083,21.500 38.860 C 21.500 38.783,21.294 38.627,21.042 38.514 L 20.583 38.307 20.951 38.654 M18.458 39.681 C 18.298 39.856,18.167 40.075,18.167 40.167 C 18.167 40.258,18.087 40.333,17.990 40.333 C 17.893 40.333,17.862 40.411,17.920 40.506 C 17.982 40.605,18.178 40.482,18.385 40.214 C 18.583 39.959,18.802 39.725,18.872 39.694 C 19.037 39.623,19.039 39.329,18.875 39.347 C 18.806 39.355,18.619 39.505,18.458 39.681 M17.125 41.349 C 16.462 42.013,16.340 42.333,16.750 42.333 C 16.887 42.333,17.000 42.221,17.000 42.083 C 17.000 41.946,17.075 41.833,17.167 41.833 C 17.258 41.833,17.333 41.748,17.333 41.643 C 17.333 41.539,17.456 41.364,17.606 41.254 C 17.756 41.144,17.850 40.980,17.815 40.888 C 17.779 40.797,17.469 41.004,17.125 41.349 M68.667 41.667 C 68.667 41.758,68.494 41.833,68.282 41.833 C 68.070 41.833,67.751 41.943,67.574 42.078 C 67.396 42.213,66.931 42.325,66.542 42.328 C 66.152 42.331,65.833 42.408,65.833 42.500 C 65.833 42.599,65.194 42.667,64.250 42.667 C 62.790 42.667,62.667 42.692,62.667 42.992 C 62.667 43.239,62.515 43.344,62.042 43.424 C 61.698 43.483,61.154 43.598,60.833 43.681 C 60.044 43.885,56.388 43.874,56.001 43.667 C 55.613 43.460,55.209 43.605,55.085 43.996 C 55.032 44.160,54.748 44.547,54.453 44.856 C 54.158 45.164,53.917 45.467,53.917 45.528 C 53.917 45.590,53.763 45.817,53.575 46.032 C 53.388 46.248,52.900 46.873,52.492 47.421 C 52.084 47.969,51.656 48.516,51.541 48.638 C 51.425 48.760,51.251 49.009,51.153 49.193 C 50.985 49.506,50.854 49.678,50.125 50.540 C 49.965 50.729,49.833 50.985,49.833 51.109 C 49.833 51.232,49.721 51.333,49.583 51.333 C 49.446 51.333,49.333 51.429,49.333 51.547 C 49.333 51.664,49.183 51.868,49.000 52.000 C 48.817 52.132,48.667 52.333,48.667 52.446 C 48.667 52.559,48.460 52.858,48.208 53.111 C 47.956 53.364,47.766 53.623,47.786 53.686 C 47.806 53.749,47.713 53.893,47.578 54.004 C 47.443 54.116,47.333 54.311,47.333 54.437 C 47.333 54.563,47.258 54.667,47.167 54.667 C 46.880 54.667,46.985 55.587,47.310 55.937 C 47.810 56.473,48.500 57.812,48.500 58.244 C 48.500 58.463,48.612 58.755,48.750 58.893 C 48.890 59.033,49.000 59.440,49.000 59.821 C 49.000 60.641,49.103 60.652,50.226 59.958 C 50.708 59.660,51.226 59.342,51.376 59.250 C 52.977 58.275,59.004 53.930,59.333 53.513 C 59.379 53.455,59.754 53.148,60.167 52.830 C 60.579 52.512,61.146 52.046,61.427 51.794 C 61.708 51.542,62.495 50.923,63.177 50.417 C 63.859 49.911,64.511 49.419,64.627 49.323 C 65.078 48.951,66.556 48.365,66.813 48.456 C 67.461 48.686,67.500 48.833,67.500 51.076 C 67.500 53.228,67.430 53.856,66.887 56.583 C 66.618 57.936,65.923 60.344,65.650 60.873 C 65.567 61.032,65.500 61.236,65.500 61.327 C 65.500 61.480,65.184 62.218,64.356 64.000 C 63.614 65.598,61.433 69.066,60.463 70.191 C 60.254 70.433,59.747 71.033,59.335 71.524 C 57.998 73.119,54.649 76.147,53.627 76.685 C 53.420 76.794,53.212 76.928,53.167 76.984 C 52.743 77.495,47.986 80.000,47.438 80.000 C 47.300 80.000,47.140 80.075,47.083 80.167 C 47.027 80.258,46.854 80.334,46.698 80.334 C 46.543 80.335,46.202 80.447,45.939 80.584 C 45.677 80.721,45.245 80.833,44.981 80.833 C 44.716 80.833,44.500 80.908,44.500 81.000 C 44.500 81.092,44.233 81.167,43.906 81.167 C 43.579 81.167,43.156 81.250,42.966 81.351 C 42.652 81.520,42.628 81.498,42.704 81.103 C 42.752 80.848,42.693 80.591,42.560 80.481 C 42.249 80.223,42.266 79.500,42.583 79.500 C 42.790 79.500,42.833 79.185,42.833 77.667 C 42.833 76.218,42.785 75.833,42.603 75.833 C 42.331 75.833,42.000 74.650,42.000 73.676 C 42.000 73.304,42.075 73.000,42.167 73.000 C 42.258 73.000,42.333 72.813,42.333 72.583 C 42.333 72.354,42.258 72.167,42.167 72.167 C 42.075 72.167,42.000 71.979,42.000 71.750 C 42.000 71.521,42.075 71.333,42.167 71.333 C 42.258 71.333,42.333 71.071,42.333 70.750 C 42.333 70.429,42.258 70.167,42.167 70.167 C 42.075 70.167,42.000 70.054,42.000 69.917 C 42.000 69.779,42.117 69.667,42.260 69.667 C 42.403 69.667,42.486 69.610,42.444 69.542 C 42.312 69.323,42.733 69.083,43.250 69.083 C 43.581 69.083,43.752 68.999,43.754 68.833 C 43.757 68.675,43.895 68.598,44.129 68.623 C 44.364 68.648,44.500 68.572,44.500 68.415 C 44.500 68.136,44.075 68.077,43.917 68.333 C 43.860 68.425,43.637 68.500,43.420 68.500 C 42.842 68.500,42.500 68.669,42.500 68.955 C 42.500 69.155,42.450 69.166,42.263 69.011 C 42.108 68.882,41.530 68.833,40.600 68.871 C 39.552 68.912,39.153 68.871,39.092 68.714 C 39.045 68.589,38.731 68.500,38.339 68.500 C 37.969 68.500,37.667 68.439,37.667 68.365 C 37.667 68.291,37.355 68.093,36.975 67.926 C 36.049 67.517,35.687 67.208,34.250 65.602 C 33.829 65.131,33.333 64.213,33.333 63.903 C 33.333 63.773,33.259 63.667,33.169 63.667 C 33.078 63.667,32.956 63.367,32.897 63.000 C 32.839 62.633,32.725 62.333,32.645 62.333 C 32.565 62.333,32.500 61.583,32.500 60.667 C 32.500 59.667,32.567 59.000,32.667 59.000 C 32.758 59.000,32.833 58.747,32.833 58.437 C 32.833 58.127,32.946 57.781,33.083 57.667 C 33.371 57.428,33.425 56.333,33.149 56.333 C 33.047 56.333,33.009 56.217,33.064 56.075 C 33.118 55.932,33.095 55.858,33.012 55.910 C 32.928 55.961,32.759 55.902,32.635 55.778 C 32.511 55.654,32.073 55.341,31.663 55.083 C 30.973 54.650,30.663 54.405,29.816 53.625 C 29.642 53.465,29.421 53.333,29.323 53.333 C 29.226 53.333,29.193 53.258,29.250 53.167 C 29.307 53.075,29.231 53.000,29.081 53.000 C 28.932 53.000,28.705 52.906,28.577 52.792 C 28.087 52.352,27.842 52.167,27.370 51.880 C 27.102 51.717,26.852 51.508,26.816 51.417 C 26.780 51.325,26.698 51.267,26.635 51.288 C 26.571 51.310,26.375 51.143,26.198 50.919 C 26.022 50.695,25.832 50.557,25.776 50.613 C 25.720 50.669,25.627 50.592,25.570 50.441 C 25.512 50.291,25.398 50.210,25.316 50.261 C 25.234 50.312,25.167 50.280,25.167 50.191 C 25.167 50.102,25.035 50.055,24.875 50.085 C 24.715 50.116,24.515 50.147,24.431 50.154 C 24.347 50.161,24.320 50.209,24.371 50.260 C 24.423 50.312,24.285 50.548,24.066 50.785 C 23.846 51.022,23.667 51.288,23.667 51.377 C 23.667 51.466,23.460 51.785,23.208 52.085 C 22.956 52.385,22.633 52.786,22.491 52.976 C 22.235 53.317,22.222 53.313,21.326 52.577 C 20.827 52.168,20.362 51.833,20.293 51.833 C 20.223 51.833,20.166 51.702,20.164 51.542 C 20.162 51.292,20.138 51.286,20.000 51.500 C 19.892 51.667,19.838 51.681,19.836 51.542 C 19.834 51.427,19.753 51.333,19.654 51.333 C 19.555 51.333,19.249 51.108,18.974 50.833 C 18.699 50.558,18.424 50.333,18.362 50.333 C 18.300 50.332,18.010 50.107,17.717 49.833 C 17.424 49.558,17.124 49.333,17.049 49.333 C 16.974 49.333,16.711 49.146,16.464 48.917 C 16.217 48.688,15.971 48.500,15.917 48.500 C 15.863 48.500,15.617 48.313,15.369 48.083 C 15.122 47.854,14.826 47.667,14.710 47.667 C 14.595 47.667,14.500 47.572,14.500 47.456 C 14.500 47.340,14.331 47.172,14.125 47.081 C 13.584 46.844,13.560 46.250,14.072 45.775 C 14.307 45.557,14.500 45.325,14.500 45.261 C 14.500 45.196,14.594 45.038,14.708 44.911 C 15.157 44.410,15.333 44.177,15.333 44.083 C 15.333 44.029,15.521 43.783,15.751 43.535 C 16.003 43.264,16.093 43.059,15.978 43.021 C 15.873 42.986,15.722 43.074,15.641 43.218 C 15.561 43.362,15.286 43.690,15.029 43.948 C 14.773 44.206,14.514 44.548,14.454 44.708 C 14.393 44.869,14.266 45.000,14.172 45.000 C 14.077 45.000,14.000 45.117,14.000 45.260 C 14.000 45.403,13.925 45.473,13.833 45.417 C 13.742 45.360,13.667 45.382,13.667 45.465 C 13.667 45.599,13.461 45.883,12.817 46.639 C 12.678 46.802,12.677 46.910,12.814 47.047 C 13.097 47.330,13.041 47.454,12.579 47.570 C 12.348 47.628,12.028 47.804,11.870 47.963 C 11.711 48.121,11.207 48.492,10.749 48.787 C 10.291 49.083,9.826 49.402,9.715 49.496 C 9.605 49.590,9.436 49.667,9.340 49.667 C 9.245 49.667,9.167 49.747,9.167 49.845 C 9.167 50.115,8.726 50.500,8.417 50.500 C 8.107 50.500,7.667 50.885,7.667 51.155 C 7.667 51.253,7.579 51.333,7.473 51.333 C 7.162 51.333,6.000 51.885,6.000 52.032 C 6.000 52.106,5.920 52.167,5.821 52.167 C 5.723 52.167,5.538 52.260,5.411 52.375 C 4.859 52.870,4.671 53.000,4.507 53.000 C 4.411 53.000,4.333 53.069,4.333 53.153 C 4.333 53.238,4.099 53.358,3.813 53.421 C 3.505 53.489,3.259 53.664,3.210 53.851 C 3.165 54.025,2.993 54.167,2.829 54.167 C 2.664 54.167,2.129 54.479,1.640 54.860 C 1.150 55.241,0.807 55.491,0.876 55.415 C 0.945 55.339,0.879 55.090,0.729 54.861 C 0.579 54.632,0.398 54.251,0.326 54.014 C 0.231 53.701,0.191 53.887,0.181 54.696 C 0.171 55.479,0.241 55.884,0.417 56.060 C 0.579 56.222,0.667 56.635,0.667 57.238 C 0.667 57.749,0.742 58.167,0.833 58.167 C 0.925 58.167,1.000 58.461,1.000 58.821 C 1.000 59.182,1.112 59.589,1.250 59.726 C 1.387 59.864,1.501 60.188,1.503 60.446 C 1.506 61.056,1.912 62.221,2.149 62.300 C 2.250 62.333,2.333 62.617,2.333 62.931 C 2.333 63.244,2.408 63.500,2.500 63.500 C 2.592 63.500,2.667 63.688,2.667 63.917 C 2.667 64.183,2.760 64.333,2.927 64.333 C 3.069 64.333,3.148 64.395,3.102 64.470 C 3.055 64.546,3.126 64.817,3.259 65.073 C 3.391 65.329,3.500 65.682,3.500 65.858 C 3.500 66.033,3.612 66.220,3.750 66.273 C 3.887 66.326,4.000 66.473,4.000 66.601 C 4.000 66.729,4.075 66.833,4.167 66.833 C 4.258 66.833,4.333 67.021,4.333 67.250 C 4.333 67.479,4.408 67.667,4.500 67.667 C 4.592 67.667,4.667 67.782,4.667 67.922 C 4.667 68.062,4.779 68.220,4.917 68.273 C 5.054 68.326,5.167 68.511,5.167 68.684 C 5.167 68.858,5.242 69.000,5.333 69.000 C 5.425 69.000,5.500 69.115,5.500 69.255 C 5.500 69.396,5.613 69.554,5.750 69.606 C 5.888 69.659,6.000 69.789,6.000 69.895 C 6.000 70.000,6.188 70.289,6.417 70.536 C 6.646 70.783,6.833 71.064,6.833 71.159 C 6.833 71.255,6.908 71.333,7.000 71.333 C 7.092 71.333,7.167 71.438,7.167 71.566 C 7.167 71.693,7.279 71.841,7.417 71.894 C 7.554 71.946,7.667 72.065,7.667 72.158 C 7.667 72.251,8.192 72.849,8.833 73.489 C 9.475 74.128,10.000 74.729,10.000 74.825 C 10.000 74.921,10.080 75.000,10.179 75.000 C 10.409 75.000,10.833 75.424,10.833 75.655 C 10.833 75.753,10.905 75.833,10.994 75.833 C 11.082 75.833,11.501 76.171,11.926 76.583 C 12.350 76.996,12.765 77.333,12.849 77.333 C 12.932 77.333,13.000 77.434,13.000 77.557 C 13.000 77.680,13.263 77.922,13.583 78.095 C 13.904 78.268,14.167 78.467,14.167 78.538 C 14.167 78.609,14.279 78.667,14.417 78.667 C 14.554 78.667,14.667 78.742,14.667 78.833 C 14.667 78.925,14.775 79.000,14.908 79.000 C 15.041 79.000,15.352 79.188,15.599 79.417 C 15.846 79.646,16.188 79.833,16.358 79.833 C 16.528 79.833,16.667 79.938,16.667 80.065 C 16.667 80.193,16.856 80.345,17.088 80.403 C 17.319 80.461,17.657 80.657,17.838 80.838 C 18.019 81.019,18.167 81.121,18.167 81.064 C 18.167 81.008,18.352 81.083,18.577 81.231 C 18.803 81.379,19.095 81.500,19.226 81.500 C 19.357 81.500,19.509 81.617,19.564 81.761 C 19.619 81.904,19.729 81.981,19.808 81.933 C 19.886 81.884,20.093 81.952,20.267 82.083 C 20.441 82.215,20.682 82.325,20.804 82.328 C 20.925 82.331,21.136 82.446,21.274 82.583 C 21.411 82.721,21.693 82.833,21.901 82.833 C 22.108 82.833,22.329 82.885,22.392 82.948 C 22.573 83.129,23.715 83.495,24.107 83.497 C 24.304 83.499,24.508 83.612,24.560 83.750 C 24.624 83.915,24.885 84.000,25.328 84.000 C 25.698 84.000,26.000 84.075,26.000 84.167 C 26.000 84.258,26.367 84.333,26.816 84.333 C 27.343 84.333,27.661 84.412,27.717 84.557 C 27.907 85.052,42.380 85.118,42.740 84.625 C 42.895 84.413,43.186 84.333,43.800 84.333 C 44.266 84.333,44.693 84.258,44.750 84.167 C 44.807 84.075,45.111 84.000,45.427 84.000 C 45.825 84.000,46.000 83.924,46.000 83.750 C 46.000 83.576,46.175 83.500,46.573 83.500 C 46.889 83.500,47.193 83.425,47.250 83.333 C 47.307 83.242,47.569 83.167,47.833 83.167 C 48.098 83.167,48.360 83.092,48.417 83.000 C 48.473 82.908,48.668 82.833,48.848 82.833 C 49.029 82.833,49.220 82.721,49.273 82.583 C 49.326 82.446,49.548 82.333,49.768 82.333 C 49.987 82.333,50.167 82.258,50.167 82.167 C 50.167 82.075,50.349 82.000,50.571 82.000 C 50.794 82.000,51.089 81.887,51.226 81.750 C 51.364 81.612,51.583 81.500,51.714 81.500 C 51.844 81.500,52.154 81.312,52.401 81.083 C 52.648 80.854,52.910 80.667,52.983 80.667 C 53.246 80.667,54.167 80.139,54.167 79.988 C 54.167 79.903,54.279 79.833,54.417 79.833 C 54.554 79.833,54.667 79.758,54.667 79.667 C 54.667 79.575,54.806 79.500,54.977 79.500 C 55.147 79.500,55.427 79.313,55.600 79.083 C 55.772 78.854,56.031 78.667,56.176 78.667 C 56.320 78.667,56.834 78.292,57.317 77.833 C 57.800 77.375,58.266 77.000,58.353 77.000 C 58.556 77.000,62.500 73.039,62.500 72.835 C 62.500 72.749,62.837 72.332,63.250 71.908 C 63.663 71.483,64.000 70.993,64.000 70.818 C 64.000 70.643,64.112 70.500,64.250 70.500 C 64.387 70.500,64.500 70.387,64.500 70.250 C 64.500 70.112,64.575 70.000,64.667 70.000 C 64.758 70.000,64.833 69.891,64.833 69.759 C 64.833 69.626,65.021 69.315,65.250 69.068 C 65.479 68.820,65.667 68.479,65.667 68.309 C 65.667 68.139,65.779 68.000,65.917 68.000 C 66.072 68.000,66.167 67.843,66.167 67.583 C 66.167 67.354,66.242 67.167,66.333 67.167 C 66.425 67.167,66.500 66.979,66.500 66.750 C 66.500 66.491,66.594 66.333,66.750 66.333 C 66.887 66.333,67.000 66.188,67.000 66.010 C 67.000 65.832,67.075 65.640,67.167 65.583 C 67.258 65.527,67.333 65.343,67.333 65.175 C 67.333 65.007,67.446 64.826,67.583 64.773 C 67.721 64.720,67.833 64.561,67.833 64.420 C 67.833 64.278,67.920 63.994,68.026 63.789 C 68.452 62.965,68.500 62.818,68.500 62.336 C 68.500 62.000,68.583 61.833,68.750 61.833 C 68.925 61.833,69.000 61.657,69.000 61.250 C 69.000 60.929,69.075 60.667,69.167 60.667 C 69.258 60.667,69.333 60.292,69.333 59.833 C 69.333 59.204,69.394 59.000,69.583 59.000 C 69.772 59.000,69.833 58.796,69.833 58.167 C 69.833 57.708,69.908 57.333,70.000 57.333 C 70.095 57.333,70.167 56.829,70.167 56.155 C 70.167 55.329,70.242 54.901,70.417 54.726 C 70.627 54.516,70.667 53.745,70.667 49.900 C 70.667 45.985,70.630 45.309,70.417 45.227 C 70.228 45.155,70.167 44.850,70.167 43.982 C 70.167 43.327,70.095 42.833,70.000 42.833 C 69.908 42.833,69.833 42.533,69.833 42.167 C 69.833 41.800,69.761 41.500,69.672 41.500 C 69.583 41.500,69.554 41.612,69.606 41.750 C 69.667 41.908,69.604 42.000,69.434 42.000 C 69.287 42.000,69.167 41.887,69.167 41.750 C 69.167 41.612,69.054 41.500,68.917 41.500 C 68.779 41.500,68.667 41.575,68.667 41.667 M293.375 42.784 C 293.169 42.824,293.000 42.926,293.000 43.012 C 293.000 43.097,292.667 43.167,292.260 43.167 C 291.853 43.167,291.473 43.242,291.417 43.333 C 291.360 43.425,291.136 43.500,290.919 43.500 C 290.702 43.500,290.411 43.612,290.274 43.750 C 290.136 43.887,289.789 44.000,289.502 44.000 C 289.197 44.000,289.023 44.069,289.083 44.167 C 289.142 44.262,288.998 44.333,288.750 44.333 C 288.510 44.333,288.359 44.406,288.414 44.495 C 288.469 44.584,288.323 44.705,288.090 44.763 C 287.857 44.822,287.667 44.936,287.667 45.018 C 287.667 45.100,287.572 45.167,287.457 45.167 C 287.341 45.167,287.044 45.354,286.797 45.583 C 286.550 45.813,286.288 46.003,286.216 46.008 C 286.143 46.012,285.746 46.349,285.333 46.756 C 284.921 47.164,284.527 47.498,284.458 47.499 C 284.390 47.499,284.333 47.612,284.333 47.750 C 284.333 47.887,284.258 48.000,284.167 48.000 C 284.075 48.000,284.000 48.079,284.000 48.175 C 284.000 48.271,283.813 48.523,283.583 48.735 C 283.354 48.948,283.167 49.244,283.167 49.394 C 283.167 49.544,283.095 49.667,283.008 49.667 C 282.820 49.667,281.500 52.229,281.500 52.594 C 281.500 52.732,281.395 53.011,281.267 53.214 C 281.139 53.417,281.050 53.808,281.069 54.083 C 281.087 54.358,281.005 54.682,280.885 54.804 C 280.632 55.059,280.561 61.167,280.811 61.167 C 280.891 61.167,281.001 61.448,281.055 61.792 C 281.213 62.791,281.261 62.983,281.384 63.106 C 281.448 63.170,281.500 63.402,281.500 63.621 C 281.500 63.840,281.569 63.977,281.653 63.925 C 281.737 63.873,281.859 64.075,281.924 64.374 C 281.989 64.672,282.089 64.954,282.146 65.000 C 282.311 65.132,282.667 65.723,282.774 66.042 C 282.828 66.202,282.938 66.333,283.019 66.333 C 283.100 66.333,283.167 66.428,283.167 66.543 C 283.167 66.659,283.354 66.956,283.583 67.203 C 283.813 67.450,284.000 67.699,284.000 67.756 C 284.000 67.931,285.398 69.253,285.537 69.208 C 285.608 69.185,285.667 69.279,285.667 69.417 C 285.667 69.554,285.745 69.667,285.841 69.667 C 285.937 69.667,286.190 69.854,286.402 70.083 C 286.614 70.313,286.858 70.500,286.944 70.500 C 287.277 70.500,287.997 70.927,287.999 71.125 C 287.999 71.240,288.112 71.333,288.250 71.333 C 288.387 71.333,288.500 71.413,288.500 71.510 C 288.500 71.607,288.564 71.647,288.642 71.599 C 288.720 71.550,289.073 71.658,289.427 71.839 C 289.781 72.019,290.209 72.167,290.378 72.167 C 290.548 72.167,290.640 72.242,290.583 72.333 C 290.521 72.434,290.741 72.500,291.136 72.500 C 291.497 72.500,291.876 72.600,291.977 72.723 C 292.088 72.856,292.580 72.960,293.202 72.983 C 293.775 73.003,294.282 73.082,294.330 73.157 C 294.462 73.366,298.116 73.383,298.245 73.175 C 298.304 73.079,298.705 73.000,299.135 72.999 C 299.565 72.998,300.131 72.886,300.394 72.749 C 300.657 72.612,301.083 72.500,301.343 72.500 C 301.602 72.500,301.860 72.425,301.917 72.333 C 301.973 72.242,302.194 72.167,302.406 72.167 C 302.619 72.167,302.886 72.054,303.000 71.917 C 303.114 71.779,303.313 71.667,303.443 71.667 C 303.651 71.667,304.443 71.238,304.667 71.004 C 304.846 70.816,305.507 70.500,305.720 70.500 C 305.843 70.500,306.044 70.313,306.167 70.083 C 306.289 69.854,306.479 69.667,306.589 69.667 C 306.856 69.667,308.356 68.174,308.653 67.613 C 308.783 67.368,308.948 67.167,309.020 67.167 C 309.092 67.167,309.276 66.904,309.428 66.583 C 309.580 66.262,309.793 66.000,309.900 66.000 C 310.008 66.000,310.108 65.832,310.124 65.627 C 310.139 65.423,310.230 65.229,310.326 65.197 C 310.422 65.165,310.500 65.006,310.500 64.844 C 310.500 64.682,310.688 64.197,310.917 63.766 C 311.146 63.335,311.333 62.808,311.333 62.595 C 311.333 62.382,311.441 62.118,311.573 62.008 C 311.705 61.899,311.774 61.706,311.726 61.580 C 311.677 61.454,311.757 60.942,311.902 60.442 C 312.209 59.386,312.262 56.490,311.984 55.970 C 311.883 55.782,311.772 55.250,311.735 54.788 C 311.671 53.965,311.469 53.168,311.113 52.333 C 311.016 52.104,310.940 51.789,310.946 51.632 C 310.951 51.476,310.873 51.364,310.773 51.382 C 310.673 51.401,310.564 51.236,310.530 51.015 C 310.497 50.794,310.363 50.506,310.233 50.376 C 310.103 50.246,310.040 50.071,310.092 49.987 C 310.144 49.902,310.121 49.833,310.042 49.833 C 309.915 49.833,308.833 48.425,308.833 48.260 C 308.833 48.109,306.643 46.000,306.486 46.000 C 306.391 46.000,306.367 45.913,306.433 45.808 C 306.501 45.697,306.479 45.660,306.381 45.721 C 306.230 45.814,306.033 45.693,305.215 45.003 C 305.105 44.910,304.861 44.833,304.674 44.833 C 304.482 44.833,304.333 44.724,304.333 44.583 C 304.333 44.428,304.176 44.333,303.917 44.333 C 303.688 44.333,303.500 44.258,303.500 44.167 C 303.500 44.075,303.369 43.998,303.208 43.995 C 303.048 43.992,302.771 43.879,302.593 43.745 C 302.415 43.610,302.101 43.500,301.895 43.500 C 301.688 43.500,301.473 43.425,301.417 43.333 C 301.360 43.242,300.999 43.164,300.615 43.161 C 300.231 43.158,299.771 43.046,299.593 42.911 C 299.281 42.675,294.454 42.576,293.375 42.784 M253.667 57.833 L 253.667 72.500 257.167 72.500 L 260.667 72.500 260.667 68.250 L 260.667 64.000 263.875 63.985 C 268.069 63.965,268.379 63.946,268.460 63.704 C 268.500 63.585,268.829 63.500,269.254 63.500 C 269.654 63.500,270.027 63.425,270.083 63.333 C 270.140 63.242,270.372 63.167,270.598 63.167 C 270.825 63.167,271.054 63.054,271.106 62.917 C 271.159 62.779,271.382 62.667,271.601 62.667 C 271.821 62.667,272.000 62.592,272.000 62.500 C 272.000 62.408,272.152 62.333,272.339 62.333 C 272.525 62.333,272.720 62.221,272.773 62.083 C 272.826 61.946,272.942 61.833,273.031 61.833 C 273.180 61.833,274.523 60.819,274.916 60.410 C 275.123 60.195,275.465 59.666,275.613 59.333 C 275.675 59.196,275.824 59.023,275.946 58.950 C 276.067 58.877,276.167 58.675,276.167 58.502 C 276.167 58.328,276.242 58.140,276.333 58.083 C 276.425 58.027,276.500 57.797,276.500 57.573 C 276.500 57.347,276.588 57.185,276.698 57.208 C 276.824 57.235,276.917 56.948,276.954 56.417 C 276.987 55.958,277.092 55.425,277.189 55.230 C 277.533 54.543,277.109 50.009,276.688 49.868 C 276.585 49.834,276.500 49.627,276.500 49.408 C 276.500 48.952,276.005 47.833,275.802 47.833 C 275.728 47.833,275.667 47.721,275.667 47.583 C 275.667 47.446,275.609 47.333,275.539 47.333 C 275.469 47.333,275.227 47.033,275.000 46.667 C 274.773 46.300,274.495 46.000,274.380 46.000 C 274.266 46.000,273.902 45.737,273.572 45.417 C 273.242 45.096,272.873 44.833,272.754 44.833 C 272.634 44.833,272.492 44.721,272.440 44.583 C 272.387 44.446,272.196 44.333,272.015 44.333 C 271.834 44.333,271.646 44.268,271.597 44.188 C 271.547 44.108,271.275 43.997,270.992 43.940 C 270.706 43.883,270.524 43.762,270.582 43.669 C 270.647 43.563,270.369 43.500,269.843 43.500 C 269.379 43.500,269.000 43.425,269.000 43.333 C 269.000 43.225,266.333 43.167,261.333 43.167 L 253.667 43.167 253.667 57.833 M317.611 43.278 C 317.419 43.470,317.479 72.634,317.672 72.753 C 318.007 72.960,324.229 72.836,324.366 72.619 C 324.437 72.508,324.496 65.835,324.497 57.792 L 324.500 43.167 321.111 43.167 C 319.247 43.167,317.672 43.217,317.611 43.278 M331.944 43.278 C 331.784 43.438,331.807 72.631,331.968 72.730 C 332.262 72.912,338.408 72.979,338.620 72.803 C 338.788 72.663,338.833 70.818,338.833 64.039 L 338.833 55.451 339.237 55.887 C 339.459 56.127,339.689 56.475,339.748 56.661 C 339.807 56.848,339.930 57.000,340.021 57.000 C 340.112 57.000,340.140 57.075,340.083 57.167 C 340.027 57.258,340.085 57.333,340.212 57.333 C 340.339 57.333,340.544 57.521,340.667 57.750 C 340.789 57.979,340.948 58.167,341.020 58.167 C 341.092 58.167,341.276 58.429,341.428 58.750 C 341.580 59.071,341.765 59.333,341.839 59.333 C 341.912 59.333,342.124 59.577,342.309 59.875 C 342.493 60.173,342.781 60.567,342.947 60.750 C 343.114 60.933,343.582 61.533,343.989 62.083 C 344.395 62.633,344.779 63.121,344.841 63.167 C 344.903 63.212,345.070 63.475,345.213 63.750 C 345.355 64.025,345.628 64.360,345.819 64.495 C 346.010 64.630,346.167 64.836,346.167 64.953 C 346.167 65.071,346.298 65.302,346.458 65.467 C 346.870 65.890,347.591 66.866,347.544 66.936 C 347.523 66.968,347.750 67.239,348.048 67.539 C 348.346 67.838,348.754 68.348,348.953 68.672 C 349.153 68.996,349.507 69.484,349.741 69.756 C 349.975 70.028,350.166 70.306,350.166 70.374 C 350.167 70.442,350.378 70.704,350.637 70.957 C 350.896 71.210,351.345 71.766,351.635 72.194 L 352.163 72.971 354.873 72.986 C 356.364 72.995,357.675 72.942,357.787 72.869 C 358.010 72.723,358.077 70.118,358.293 53.208 C 358.361 47.869,358.356 43.500,358.282 43.500 C 358.208 43.500,358.193 43.425,358.250 43.333 C 358.409 43.077,351.624 43.110,351.367 43.367 C 351.222 43.511,351.167 44.662,351.166 47.492 C 351.166 53.080,350.971 59.667,350.807 59.667 C 350.730 59.667,350.667 59.582,350.667 59.477 C 350.667 59.373,350.493 59.127,350.281 58.931 C 350.069 58.735,349.753 58.332,349.579 58.037 C 349.404 57.742,349.203 57.500,349.131 57.500 C 349.059 57.500,349.000 57.428,349.000 57.341 C 349.000 57.253,348.807 56.972,348.572 56.716 C 348.336 56.460,348.036 56.131,347.905 55.986 C 347.774 55.841,347.667 55.641,347.667 55.542 C 347.667 55.442,347.597 55.336,347.512 55.306 C 347.428 55.275,347.334 55.147,347.304 55.021 C 347.274 54.895,347.022 54.558,346.744 54.271 C 346.465 53.985,346.147 53.542,346.037 53.287 C 345.926 53.032,345.723 52.781,345.585 52.727 C 345.446 52.674,345.333 52.527,345.333 52.399 C 345.333 52.271,345.221 52.167,345.083 52.167 C 344.866 52.167,344.750 51.862,344.814 51.458 C 344.824 51.390,344.770 51.352,344.694 51.375 C 344.536 51.422,343.667 50.448,343.667 50.224 C 343.667 50.145,343.479 49.878,343.250 49.631 C 343.021 49.383,342.833 49.103,342.833 49.007 C 342.833 48.912,342.763 48.833,342.678 48.833 C 342.592 48.833,342.475 48.682,342.416 48.498 C 342.357 48.313,342.240 48.205,342.155 48.257 C 342.070 48.310,341.999 48.255,341.997 48.135 C 341.995 48.015,341.741 47.627,341.431 47.273 C 341.122 46.918,340.767 46.432,340.643 46.191 C 340.519 45.950,340.227 45.591,339.995 45.393 C 339.763 45.194,339.463 44.825,339.328 44.572 C 339.194 44.318,338.871 43.899,338.612 43.639 L 338.141 43.167 335.098 43.167 C 333.425 43.167,332.006 43.217,331.944 43.278 M363.111 43.278 C 362.901 43.488,362.984 49.584,363.200 49.800 C 363.345 49.945,364.578 50.000,367.700 50.000 L 372.000 50.000 372.000 61.399 C 372.000 71.639,372.027 72.808,372.264 72.899 C 372.607 73.031,378.226 73.031,378.570 72.899 C 378.807 72.808,378.833 71.639,378.833 61.399 L 378.833 50.000 383.240 50.000 C 385.955 50.000,387.686 49.937,387.748 49.836 C 387.804 49.745,387.850 48.357,387.850 46.750 C 387.850 45.143,387.804 43.755,387.748 43.664 C 387.686 43.563,386.041 43.500,383.490 43.500 C 380.830 43.500,379.333 43.440,379.333 43.333 C 379.333 43.146,363.298 43.091,363.111 43.278 M391.167 44.083 C 391.167 44.653,391.183 44.667,391.833 44.667 L 392.500 44.667 392.500 46.333 L 392.500 48.000 392.986 48.000 C 393.963 48.000,394.000 47.935,394.000 46.232 L 394.000 44.667 394.667 44.667 L 395.333 44.667 395.333 46.333 L 395.333 48.000 396.083 48.000 L 396.833 48.000 396.846 47.042 C 396.854 46.515,396.901 46.188,396.952 46.315 C 397.264 47.104,397.891 47.371,398.268 46.875 C 398.468 46.612,398.490 46.633,398.495 47.092 C 398.502 47.748,398.767 48.000,399.450 48.000 L 400.000 48.000 400.000 45.750 L 400.000 43.500 399.359 43.500 C 398.676 43.500,398.376 43.727,397.929 44.584 C 397.786 44.859,397.668 44.978,397.668 44.849 C 397.663 43.859,395.953 43.062,395.399 43.792 C 395.188 44.069,395.177 44.069,395.172 43.792 C 395.167 43.530,394.958 43.500,393.167 43.500 L 391.167 43.500 391.167 44.083 M0.271 43.923 C 0.213 44.072,0.173 44.319,0.181 44.472 C 0.189 44.625,0.261 44.529,0.342 44.258 C 0.499 43.732,0.444 43.472,0.271 43.923 M298.000 49.417 C 298.000 49.590,298.175 49.667,298.573 49.667 C 298.889 49.667,299.193 49.742,299.250 49.833 C 299.307 49.925,299.499 50.000,299.677 50.000 C 299.854 50.000,300.000 50.097,300.000 50.215 C 300.000 50.333,300.168 50.442,300.373 50.457 C 300.577 50.473,300.771 50.564,300.803 50.659 C 300.835 50.755,300.953 50.833,301.066 50.833 C 301.365 50.833,302.194 51.748,302.044 51.913 C 301.974 51.990,302.004 52.004,302.110 51.943 C 302.320 51.823,303.333 53.079,303.333 53.459 C 303.333 53.584,303.408 53.640,303.500 53.583 C 303.592 53.527,303.667 53.583,303.667 53.709 C 303.667 53.835,303.821 54.257,304.010 54.648 C 304.201 55.044,304.373 55.777,304.398 56.304 C 304.423 56.824,304.536 57.425,304.651 57.638 C 304.822 57.957,304.813 58.123,304.599 58.575 C 304.455 58.877,304.362 59.415,304.391 59.770 C 304.427 60.201,304.314 60.675,304.055 61.191 C 303.842 61.617,303.667 62.085,303.667 62.233 C 303.667 62.380,303.550 62.500,303.407 62.500 C 303.264 62.500,303.190 62.569,303.242 62.653 C 303.294 62.738,303.223 62.920,303.085 63.058 C 302.947 63.196,302.833 63.352,302.833 63.403 C 302.833 63.583,302.273 64.149,302.162 64.080 C 302.101 64.042,301.951 64.196,301.830 64.422 C 301.709 64.648,301.545 64.833,301.465 64.833 C 301.384 64.833,301.124 65.014,300.886 65.234 C 300.648 65.455,300.051 65.762,299.560 65.917 C 299.069 66.071,298.667 66.249,298.667 66.312 C 298.667 66.523,294.274 66.425,293.886 66.206 C 293.686 66.093,293.367 66.000,293.178 66.000 C 292.988 66.000,292.833 65.934,292.833 65.853 C 292.833 65.772,292.702 65.661,292.542 65.608 C 291.923 65.400,290.000 63.739,290.000 63.413 C 290.000 63.309,289.818 63.126,289.597 63.007 C 289.375 62.888,289.229 62.698,289.273 62.584 C 289.317 62.470,289.236 62.259,289.093 62.117 C 288.950 61.974,288.833 61.706,288.833 61.522 C 288.833 61.337,288.765 61.144,288.681 61.092 C 288.597 61.041,288.478 60.699,288.417 60.333 C 288.355 59.968,288.236 59.626,288.152 59.574 C 287.885 59.409,287.963 56.217,288.237 56.111 C 288.379 56.057,288.439 55.887,288.387 55.686 C 288.339 55.503,288.420 55.112,288.566 54.817 C 288.713 54.523,288.833 54.178,288.833 54.050 C 288.833 53.922,289.040 53.624,289.292 53.388 C 289.544 53.152,289.603 53.062,289.424 53.188 C 289.199 53.345,289.251 53.210,289.590 52.753 C 290.104 52.061,291.000 51.115,291.000 51.264 C 291.000 51.312,291.169 51.170,291.375 50.948 C 291.581 50.727,291.919 50.493,292.125 50.429 C 292.331 50.364,292.500 50.241,292.500 50.155 C 292.500 50.070,292.646 50.000,292.823 50.000 C 293.001 50.000,293.193 49.925,293.250 49.833 C 293.307 49.742,293.602 49.667,293.906 49.667 C 294.210 49.667,294.553 49.554,294.667 49.417 C 294.824 49.227,295.251 49.167,296.437 49.167 C 297.715 49.167,298.000 49.212,298.000 49.417 M267.417 49.833 C 267.473 49.925,267.631 50.000,267.767 50.000 C 267.903 50.000,268.127 50.094,268.265 50.208 C 268.980 50.802,269.333 51.207,269.333 51.434 C 269.333 51.573,269.408 51.640,269.500 51.583 C 269.595 51.525,269.667 51.665,269.667 51.907 C 269.667 52.141,269.742 52.333,269.833 52.333 C 270.353 52.333,269.862 55.328,269.241 55.949 C 269.113 56.078,268.949 56.273,268.879 56.383 C 268.690 56.676,268.055 57.000,267.669 57.000 C 267.482 57.000,267.333 57.111,267.333 57.250 C 267.333 57.464,266.852 57.500,264.000 57.500 L 260.667 57.500 260.667 54.361 C 260.667 52.635,260.723 51.166,260.792 51.097 C 260.933 50.956,260.950 50.871,260.979 50.167 L 261.000 49.667 264.157 49.667 C 266.082 49.667,267.354 49.732,267.417 49.833 M44.771 67.965 C 44.726 68.038,44.835 68.108,45.012 68.122 C 45.189 68.135,45.333 68.076,45.333 67.990 C 45.333 67.800,44.886 67.781,44.771 67.965 " stroke="none" fill="#df116e" fill-rule="evenodd"></path><path id="path2" d="M22.667 39.965 C 22.667 40.035,22.817 40.221,23.000 40.378 C 23.183 40.535,23.333 40.606,23.333 40.535 C 23.333 40.465,23.183 40.279,23.000 40.122 C 22.817 39.965,22.667 39.894,22.667 39.965 M15.697 43.585 C 15.498 43.813,15.393 44.000,15.464 44.000 C 15.628 44.000,16.212 43.324,16.124 43.235 C 16.088 43.199,15.895 43.356,15.697 43.585 M358.374 53.111 C 358.351 58.352,358.290 62.777,358.237 62.945 C 358.151 63.219,358.160 63.222,358.322 62.971 C 358.448 62.776,358.489 59.787,358.458 53.137 L 358.414 43.583 358.374 53.111 M351.074 49.083 C 351.074 51.925,351.097 53.111,351.125 51.719 C 351.152 50.327,351.153 48.002,351.125 46.552 C 351.097 45.103,351.074 46.242,351.074 49.083 M387.902 46.750 C 387.901 48.308,387.926 48.968,387.957 48.217 C 387.988 47.465,387.988 46.190,387.958 45.383 C 387.927 44.577,387.902 45.192,387.902 46.750 M339.367 44.659 C 339.597 45.027,339.759 44.981,339.609 44.591 C 339.555 44.449,339.432 44.333,339.337 44.333 C 339.227 44.333,339.239 44.453,339.367 44.659 M286.597 45.509 C 286.130 45.980,286.342 46.028,286.830 45.562 C 287.057 45.344,287.170 45.171,287.080 45.177 C 286.990 45.182,286.773 45.332,286.597 45.509 M305.697 45.375 C 306.256 45.902,306.576 46.065,306.179 45.620 C 305.957 45.371,305.708 45.167,305.626 45.167 C 305.543 45.167,305.576 45.260,305.697 45.375 M396.879 47.083 C 396.884 47.677,396.915 47.847,396.957 47.501 C 396.996 47.181,397.115 46.864,397.222 46.796 C 397.370 46.701,397.370 46.671,397.221 46.669 C 397.113 46.668,396.990 46.535,396.948 46.375 C 396.906 46.215,396.875 46.533,396.879 47.083 M285.025 46.767 C 284.901 46.907,284.833 47.055,284.873 47.095 C 284.913 47.136,285.083 47.018,285.249 46.834 C 285.415 46.650,285.484 46.503,285.401 46.506 C 285.318 46.510,285.149 46.627,285.025 46.767 M26.351 47.531 C 26.298 47.874,26.694 48.498,26.954 48.481 C 27.191 48.465,27.198 48.447,26.988 48.391 C 26.844 48.352,26.646 48.117,26.548 47.869 C 26.449 47.620,26.361 47.468,26.351 47.531 M15.337 48.062 C 15.564 48.279,15.782 48.428,15.821 48.393 C 15.911 48.314,15.226 47.667,15.052 47.667 C 14.981 47.667,15.110 47.844,15.337 48.062 M65.690 48.754 C 65.221 48.972,64.743 49.227,64.627 49.323 C 64.511 49.419,63.859 49.911,63.177 50.417 C 62.495 50.923,61.708 51.542,61.427 51.794 C 61.146 52.046,60.579 52.512,60.167 52.830 C 59.754 53.148,59.379 53.455,59.333 53.513 C 59.004 53.930,52.977 58.275,51.376 59.250 C 51.226 59.342,50.708 59.660,50.226 59.958 C 49.744 60.256,49.271 60.500,49.175 60.500 C 49.018 60.500,48.908 61.867,48.994 62.750 L 49.027 63.083 48.751 62.750 C 48.478 62.420,48.476 62.420,48.553 62.784 C 48.596 62.986,48.529 63.286,48.404 63.451 C 48.118 63.828,48.104 64.052,48.375 63.914 C 48.490 63.857,48.377 63.986,48.125 64.203 C 47.873 64.419,47.667 64.718,47.667 64.867 C 47.667 65.017,47.573 65.177,47.458 65.223 C 47.292 65.290,47.292 65.310,47.458 65.320 C 47.781 65.341,47.704 65.666,47.375 65.672 C 47.015 65.679,46.500 66.054,46.500 66.310 C 46.500 66.415,46.444 66.500,46.375 66.500 C 45.964 66.501,45.322 67.310,45.606 67.470 C 45.837 67.599,45.761 67.633,45.247 67.633 C 44.888 67.633,44.567 67.716,44.533 67.817 C 44.500 67.917,44.291 68.000,44.069 68.000 C 43.716 68.000,43.671 68.068,43.708 68.542 C 43.747 69.042,43.712 69.083,43.250 69.083 C 42.733 69.083,42.312 69.323,42.444 69.542 C 42.486 69.610,42.403 69.667,42.260 69.667 C 42.117 69.667,42.000 69.779,42.000 69.917 C 42.000 70.054,42.075 70.167,42.167 70.167 C 42.258 70.167,42.333 70.429,42.333 70.750 C 42.333 71.071,42.258 71.333,42.167 71.333 C 42.075 71.333,42.000 71.521,42.000 71.750 C 42.000 71.979,42.075 72.167,42.167 72.167 C 42.258 72.167,42.333 72.354,42.333 72.583 C 42.333 72.813,42.258 73.000,42.167 73.000 C 42.075 73.000,42.000 73.304,42.000 73.676 C 42.000 74.650,42.331 75.833,42.603 75.833 C 42.785 75.833,42.833 76.218,42.833 77.667 C 42.833 79.185,42.790 79.500,42.583 79.500 C 42.266 79.500,42.249 80.223,42.560 80.481 C 42.693 80.591,42.752 80.848,42.704 81.103 C 42.628 81.498,42.652 81.520,42.966 81.351 C 43.156 81.250,43.579 81.167,43.906 81.167 C 44.233 81.167,44.500 81.092,44.500 81.000 C 44.500 80.908,44.716 80.833,44.981 80.833 C 45.245 80.833,45.677 80.721,45.939 80.584 C 46.202 80.447,46.543 80.335,46.698 80.334 C 46.854 80.334,47.027 80.258,47.083 80.167 C 47.140 80.075,47.300 80.000,47.438 80.000 C 47.986 80.000,52.743 77.495,53.167 76.984 C 53.212 76.928,53.420 76.794,53.627 76.685 C 54.649 76.147,57.998 73.119,59.335 71.524 C 59.747 71.033,60.254 70.433,60.463 70.191 C 61.433 69.066,63.614 65.598,64.356 64.000 C 65.184 62.218,65.500 61.480,65.500 61.327 C 65.500 61.236,65.567 61.032,65.650 60.873 C 66.101 60.001,66.804 57.229,67.326 54.264 C 67.579 52.829,67.554 48.916,67.292 48.713 C 66.843 48.366,66.509 48.375,65.690 48.754 M309.269 48.922 C 309.421 49.154,309.578 49.311,309.617 49.271 C 309.716 49.173,309.285 48.500,309.123 48.500 C 309.051 48.500,309.117 48.690,309.269 48.922 M28.000 49.296 C 28.000 49.521,28.684 50.022,28.888 49.948 C 28.995 49.909,28.879 49.781,28.630 49.664 C 28.381 49.547,28.217 49.387,28.265 49.309 C 28.313 49.231,28.274 49.167,28.177 49.167 C 28.079 49.167,28.000 49.225,28.000 49.296 M25.167 50.194 C 25.167 50.301,25.216 50.340,25.275 50.280 C 25.335 50.221,25.489 50.302,25.618 50.461 C 25.828 50.720,25.833 50.711,25.670 50.375 C 25.478 49.978,25.167 49.867,25.167 50.194 M29.538 50.561 C 29.687 50.711,29.882 50.833,29.970 50.833 C 30.059 50.833,30.174 50.946,30.227 51.083 C 30.280 51.221,30.441 51.333,30.586 51.333 C 30.950 51.333,30.195 50.584,29.660 50.415 C 29.295 50.299,29.286 50.310,29.538 50.561 M18.833 50.631 C 18.833 50.702,18.983 50.888,19.167 51.045 C 19.350 51.202,19.500 51.272,19.500 51.202 C 19.500 51.132,19.350 50.946,19.167 50.789 C 18.983 50.632,18.833 50.561,18.833 50.631 M344.295 51.125 C 344.564 51.469,344.827 51.862,344.879 52.000 C 344.958 52.210,344.976 52.206,344.987 51.979 C 344.994 51.830,344.887 51.614,344.750 51.500 C 344.613 51.386,344.500 51.221,344.500 51.134 C 344.500 50.955,344.080 50.500,343.915 50.500 C 343.854 50.500,344.026 50.781,344.295 51.125 M23.700 51.033 C 23.590 51.143,23.500 51.331,23.500 51.450 C 23.500 51.569,23.425 51.667,23.333 51.667 C 23.242 51.667,23.167 51.746,23.167 51.843 C 23.167 52.132,23.461 51.862,23.727 51.330 C 24.000 50.782,23.996 50.737,23.700 51.033 M301.167 50.920 C 301.167 51.092,302.516 52.373,302.604 52.284 C 302.635 52.254,302.324 51.900,301.913 51.497 C 301.503 51.094,301.167 50.834,301.167 50.920 M26.952 51.442 C 26.893 51.539,27.029 51.702,27.255 51.805 C 27.507 51.920,27.667 51.930,27.667 51.830 C 27.667 51.740,27.560 51.667,27.431 51.667 C 27.301 51.667,27.164 51.577,27.128 51.467 C 27.083 51.332,27.025 51.324,26.952 51.442 M31.333 51.785 C 31.333 52.008,32.007 52.526,32.209 52.458 C 32.309 52.425,32.153 52.228,31.862 52.021 C 31.571 51.813,31.333 51.707,31.333 51.785 M22.500 52.583 C 22.377 52.813,22.210 53.000,22.129 53.000 C 22.047 53.000,22.027 53.076,22.084 53.168 C 22.150 53.275,22.265 53.259,22.401 53.123 C 22.722 52.802,23.032 52.167,22.867 52.167 C 22.788 52.167,22.623 52.354,22.500 52.583 M28.000 52.333 C 28.000 52.425,28.070 52.500,28.155 52.500 C 28.240 52.500,28.427 52.618,28.571 52.762 C 28.743 52.934,28.833 52.955,28.833 52.822 C 28.833 52.619,28.357 52.182,28.125 52.172 C 28.056 52.169,28.000 52.242,28.000 52.333 M33.000 53.110 C 33.000 53.237,33.536 53.654,33.708 53.661 C 33.992 53.673,33.804 53.373,33.417 53.197 C 33.188 53.093,33.000 53.054,33.000 53.110 M30.669 54.277 C 30.668 54.384,31.043 54.703,31.503 54.986 C 32.422 55.552,32.655 55.631,32.274 55.250 C 32.136 55.112,31.943 55.000,31.845 55.000 C 31.747 55.000,31.667 54.930,31.667 54.845 C 31.667 54.759,31.498 54.636,31.292 54.572 C 31.085 54.508,30.862 54.371,30.794 54.269 C 30.706 54.135,30.671 54.137,30.669 54.277 M46.897 54.740 C 46.847 54.872,46.840 55.116,46.883 55.282 C 46.936 55.485,46.968 55.439,46.981 55.139 C 46.991 54.894,47.094 54.657,47.208 54.610 C 47.372 54.545,47.370 54.523,47.203 54.513 C 47.086 54.506,46.948 54.608,46.897 54.740 M32.950 56.111 C 32.997 56.233,33.103 56.333,33.184 56.333 C 33.266 56.333,33.333 56.233,33.333 56.111 C 33.333 55.989,33.228 55.889,33.099 55.889 C 32.970 55.889,32.903 55.989,32.950 56.111 M33.062 57.447 C 33.122 57.555,33.096 57.691,33.003 57.748 C 32.910 57.806,32.833 58.111,32.833 58.427 C 32.833 58.742,32.758 59.000,32.667 59.000 C 32.575 59.000,32.500 59.122,32.500 59.270 C 32.500 59.492,32.545 59.503,32.750 59.333 C 32.892 59.216,33.000 58.852,33.000 58.493 C 33.000 58.139,33.092 57.827,33.208 57.785 C 33.370 57.726,33.364 57.656,33.184 57.479 C 33.056 57.353,33.001 57.339,33.062 57.447 M349.339 57.613 C 349.348 57.848,349.833 58.411,349.833 58.187 C 349.833 58.071,349.721 57.864,349.583 57.726 C 349.446 57.589,349.336 57.538,349.339 57.613 M340.865 58.344 C 340.905 58.464,341.036 58.595,341.156 58.635 C 341.281 58.677,341.344 58.615,341.302 58.490 C 341.262 58.369,341.131 58.238,341.010 58.198 C 340.885 58.156,340.823 58.219,340.865 58.344 M342.129 59.889 C 342.539 60.585,343.032 61.167,343.210 61.167 C 343.285 61.167,343.188 60.998,342.995 60.792 C 342.802 60.585,342.493 60.173,342.309 59.875 C 341.866 59.160,341.706 59.173,342.129 59.889 M275.341 59.740 C 275.228 59.877,275.174 60.085,275.221 60.203 C 275.277 60.343,275.312 60.321,275.320 60.139 C 275.327 59.986,275.427 59.828,275.542 59.787 C 275.656 59.746,275.704 59.663,275.649 59.602 C 275.593 59.542,275.455 59.604,275.341 59.740 M273.823 61.330 C 273.508 61.599,273.312 61.823,273.387 61.827 C 273.462 61.830,273.635 61.722,273.770 61.587 C 273.906 61.452,274.143 61.270,274.299 61.183 C 274.454 61.096,274.539 60.983,274.488 60.933 C 274.437 60.882,274.138 61.061,273.823 61.330 M32.500 62.153 C 32.500 62.252,32.570 62.333,32.656 62.333 C 32.741 62.333,32.845 62.540,32.887 62.792 C 32.946 63.146,32.958 63.121,32.940 62.680 C 32.920 62.181,32.500 61.679,32.500 62.153 M290.418 64.001 C 290.584 64.185,290.755 64.301,290.797 64.259 C 290.887 64.169,290.412 63.667,290.236 63.667 C 290.169 63.667,290.251 63.817,290.418 64.001 M34.500 65.790 C 34.500 65.957,35.129 66.667,35.277 66.667 C 35.330 66.667,35.271 66.536,35.145 66.376 C 34.735 65.853,34.500 65.640,34.500 65.790 M295.961 66.454 C 296.261 66.491,296.711 66.490,296.961 66.452 C 297.212 66.414,296.967 66.384,296.417 66.385 C 295.867 66.386,295.662 66.417,295.961 66.454 M35.593 67.078 C 36.018 67.399,36.260 67.403,35.940 67.083 C 35.803 66.946,35.596 66.833,35.480 66.833 C 35.362 66.833,35.412 66.941,35.593 67.078 M283.167 66.885 C 283.167 67.059,283.814 67.744,283.893 67.655 C 283.928 67.615,283.779 67.397,283.562 67.170 C 283.344 66.943,283.167 66.815,283.167 66.885 M45.333 67.990 C 45.333 68.076,45.189 68.135,45.012 68.122 C 44.835 68.108,44.726 68.038,44.771 67.965 C 44.886 67.781,45.333 67.800,45.333 67.990 M44.500 68.434 C 44.500 68.610,44.409 68.668,44.236 68.601 C 44.091 68.546,43.937 68.500,43.893 68.500 C 43.849 68.500,43.860 68.425,43.917 68.333 C 44.081 68.068,44.500 68.140,44.500 68.434 M307.917 68.500 C 307.751 68.683,307.667 68.833,307.731 68.833 C 307.795 68.833,308.008 68.683,308.205 68.500 C 308.402 68.317,308.485 68.167,308.391 68.167 C 308.296 68.167,308.083 68.317,307.917 68.500 M348.669 68.465 C 348.668 68.584,348.826 68.846,349.021 69.049 C 349.333 69.374,349.353 69.378,349.193 69.083 C 348.839 68.434,348.672 68.237,348.669 68.465 M42.275 68.745 C 42.223 68.879,42.253 69.034,42.341 69.088 C 42.428 69.142,42.500 69.076,42.500 68.940 C 42.500 68.805,42.594 68.657,42.708 68.610 C 42.840 68.557,42.816 68.521,42.643 68.513 C 42.492 68.506,42.327 68.610,42.275 68.745 M351.176 71.750 C 351.178 71.971,351.643 72.580,351.737 72.485 C 351.777 72.445,351.667 72.225,351.492 71.998 C 351.317 71.770,351.175 71.658,351.176 71.750 M324.333 72.639 C 324.333 72.779,323.457 72.844,321.208 72.871 L 318.083 72.909 321.154 72.958 C 324.010 73.004,324.798 72.909,324.447 72.558 C 324.385 72.496,324.333 72.532,324.333 72.639 M333.375 72.956 C 333.902 72.990,334.765 72.990,335.292 72.956 C 335.819 72.923,335.387 72.896,334.333 72.896 C 333.279 72.896,332.848 72.923,333.375 72.956 " stroke="none" fill="#c41b4c" fill-rule="evenodd"></path><path id="path3" d="M73.125 0.112 C 72.579 0.162,72.333 0.260,72.333 0.426 C 72.333 0.572,72.169 0.667,71.917 0.667 C 71.688 0.667,71.500 0.742,71.500 0.833 C 71.500 0.925,71.271 1.000,70.992 1.000 C 70.664 1.000,70.347 1.148,70.098 1.417 C 69.886 1.646,69.552 1.833,69.356 1.833 C 69.160 1.833,69.000 1.919,69.000 2.023 C 69.000 2.279,68.485 2.655,68.125 2.661 C 67.965 2.664,67.833 2.779,67.833 2.917 C 67.833 3.054,67.758 3.167,67.666 3.167 C 67.376 3.167,66.167 4.527,66.167 4.853 C 66.167 5.026,66.086 5.167,65.988 5.167 C 65.694 5.167,65.333 5.619,65.333 5.988 C 65.333 6.184,65.225 6.333,65.083 6.333 C 64.928 6.333,64.833 6.491,64.833 6.750 C 64.833 6.979,64.758 7.167,64.667 7.167 C 64.575 7.167,64.500 7.346,64.500 7.566 C 64.500 7.785,64.387 8.008,64.250 8.060 C 64.104 8.116,64.000 8.366,64.000 8.661 C 64.000 8.939,63.925 9.167,63.833 9.167 C 63.742 9.167,63.667 9.542,63.667 10.000 C 63.667 10.458,63.592 10.833,63.500 10.833 C 63.397 10.833,63.333 11.750,63.333 13.250 C 63.333 14.750,63.397 15.667,63.500 15.667 C 63.592 15.667,63.667 16.042,63.667 16.500 C 63.667 16.958,63.742 17.333,63.833 17.333 C 63.925 17.333,64.000 17.553,64.000 17.821 C 64.000 18.090,64.112 18.422,64.250 18.560 C 64.387 18.697,64.500 18.927,64.500 19.071 C 64.500 19.215,64.575 19.333,64.667 19.333 C 64.758 19.333,64.833 19.521,64.833 19.750 C 64.833 20.009,64.928 20.167,65.083 20.167 C 65.227 20.167,65.333 20.317,65.333 20.522 C 65.333 20.717,65.596 21.125,65.917 21.427 C 66.237 21.730,66.500 22.065,66.500 22.172 C 66.500 22.431,67.578 23.500,67.839 23.500 C 67.952 23.500,68.292 23.762,68.594 24.083 C 68.897 24.404,69.299 24.667,69.489 24.667 C 69.684 24.667,69.833 24.775,69.833 24.917 C 69.833 25.072,69.991 25.167,70.250 25.167 C 70.479 25.167,70.667 25.242,70.667 25.333 C 70.667 25.425,70.854 25.500,71.083 25.500 C 71.343 25.500,71.500 25.594,71.500 25.750 C 71.500 25.906,71.657 26.000,71.917 26.000 C 72.146 26.000,72.333 26.075,72.333 26.167 C 72.333 26.259,72.778 26.333,73.333 26.333 C 74.131 26.333,74.333 26.386,74.333 26.595 C 74.333 26.942,79.510 26.889,79.625 26.542 C 79.667 26.417,79.990 26.333,80.431 26.333 C 80.835 26.333,81.167 26.258,81.167 26.167 C 81.167 26.075,81.357 26.000,81.589 26.000 C 81.821 26.000,82.054 25.887,82.106 25.750 C 82.159 25.613,82.401 25.498,82.643 25.495 C 83.128 25.489,83.667 25.153,83.667 24.857 C 83.667 24.752,83.854 24.667,84.083 24.667 C 84.313 24.667,84.500 24.592,84.500 24.500 C 84.500 24.408,84.612 24.333,84.750 24.333 C 84.887 24.333,85.000 24.221,85.000 24.083 C 85.000 23.944,85.148 23.833,85.333 23.833 C 85.517 23.833,85.667 23.758,85.667 23.667 C 85.667 23.575,85.747 23.500,85.846 23.500 C 86.079 23.500,87.000 22.579,87.000 22.346 C 87.000 22.247,87.075 22.167,87.167 22.167 C 87.258 22.167,87.333 22.017,87.333 21.833 C 87.333 21.648,87.444 21.500,87.583 21.500 C 87.721 21.500,87.833 21.405,87.833 21.290 C 87.833 21.174,88.021 20.938,88.250 20.766 C 88.479 20.594,88.667 20.314,88.667 20.143 C 88.667 19.973,88.742 19.833,88.833 19.833 C 88.925 19.833,89.000 19.654,89.000 19.434 C 89.000 19.215,89.112 18.992,89.250 18.940 C 89.396 18.884,89.500 18.634,89.500 18.339 C 89.500 18.061,89.575 17.833,89.667 17.833 C 89.758 17.833,89.833 17.458,89.833 17.000 C 89.833 16.370,89.894 16.167,90.083 16.167 C 90.296 16.167,90.333 15.741,90.333 13.333 C 90.333 10.926,90.296 10.500,90.083 10.500 C 89.894 10.500,89.833 10.296,89.833 9.667 C 89.833 9.208,89.758 8.833,89.667 8.833 C 89.575 8.833,89.500 8.606,89.500 8.328 C 89.500 8.033,89.396 7.783,89.250 7.727 C 89.112 7.674,89.000 7.452,89.000 7.232 C 89.000 7.013,88.925 6.833,88.833 6.833 C 88.742 6.833,88.667 6.646,88.667 6.417 C 88.667 6.157,88.572 6.000,88.417 6.000 C 88.279 6.000,88.167 5.888,88.167 5.750 C 88.167 5.612,88.092 5.500,88.000 5.500 C 87.908 5.500,87.833 5.378,87.833 5.229 C 87.833 4.831,85.253 2.333,84.842 2.333 C 84.654 2.333,84.500 2.248,84.500 2.143 C 84.500 1.893,83.988 1.512,83.643 1.505 C 83.492 1.502,83.326 1.388,83.273 1.250 C 83.220 1.113,83.025 1.000,82.839 1.000 C 82.652 1.000,82.500 0.925,82.500 0.833 C 82.500 0.742,82.265 0.667,81.977 0.667 C 81.680 0.667,81.365 0.546,81.250 0.388 C 81.044 0.107,75.301 -0.089,73.125 0.112 M103.333 42.500 C 103.333 42.592,102.996 42.667,102.583 42.667 C 102.028 42.667,101.833 42.731,101.833 42.917 C 101.833 43.090,101.659 43.167,101.260 43.167 C 100.944 43.167,100.640 43.242,100.583 43.333 C 100.527 43.425,100.332 43.500,100.152 43.500 C 99.971 43.500,99.780 43.612,99.727 43.750 C 99.674 43.887,99.508 44.002,99.357 44.005 C 99.012 44.012,98.500 44.393,98.500 44.643 C 98.500 44.748,98.337 44.833,98.138 44.833 C 97.927 44.833,97.477 45.145,97.058 45.583 C 96.662 45.996,96.263 46.333,96.169 46.333 C 96.076 46.333,96.000 46.414,96.000 46.512 C 96.000 46.743,95.576 47.167,95.345 47.167 C 95.247 47.167,95.167 47.245,95.167 47.341 C 95.167 47.437,94.979 47.703,94.750 47.932 C 94.521 48.161,94.333 48.458,94.333 48.591 C 94.333 48.724,94.258 48.833,94.167 48.833 C 94.075 48.833,94.000 48.938,94.000 49.066 C 94.000 49.193,93.888 49.341,93.750 49.394 C 93.612 49.446,93.500 49.642,93.500 49.828 C 93.500 50.014,93.425 50.167,93.333 50.167 C 93.242 50.167,93.167 50.429,93.167 50.750 C 93.167 51.157,93.091 51.333,92.917 51.333 C 92.761 51.333,92.667 51.491,92.667 51.750 C 92.667 51.979,92.592 52.167,92.500 52.167 C 92.408 52.167,92.333 52.489,92.333 52.883 C 92.333 53.278,92.240 53.694,92.125 53.808 C 91.971 53.962,91.917 54.943,91.917 57.536 C 91.917 60.204,91.967 61.072,92.125 61.125 C 92.250 61.167,92.333 61.490,92.333 61.931 C 92.333 62.335,92.408 62.667,92.500 62.667 C 92.592 62.667,92.667 62.824,92.667 63.016 C 92.667 63.208,92.790 63.602,92.940 63.891 C 93.427 64.825,93.500 64.992,93.500 65.172 C 93.500 65.270,93.688 65.523,93.917 65.735 C 94.146 65.948,94.333 66.234,94.333 66.371 C 94.333 66.508,94.521 66.761,94.750 66.933 C 94.979 67.105,95.167 67.340,95.167 67.456 C 95.167 67.572,95.247 67.667,95.345 67.667 C 95.606 67.667,95.955 68.058,96.025 68.428 C 96.060 68.610,96.250 68.773,96.460 68.803 C 96.665 68.833,96.833 68.964,96.833 69.095 C 96.833 69.226,96.897 69.333,96.974 69.333 C 97.052 69.333,97.386 69.596,97.716 69.917 C 98.047 70.237,98.433 70.500,98.575 70.500 C 98.717 70.500,98.833 70.575,98.833 70.667 C 98.833 70.758,99.021 70.833,99.250 70.833 C 99.509 70.833,99.667 70.928,99.667 71.083 C 99.667 71.239,99.824 71.333,100.083 71.333 C 100.313 71.333,100.500 71.408,100.500 71.500 C 100.500 71.592,100.765 71.667,101.089 71.667 C 101.458 71.667,101.713 71.760,101.773 71.917 C 101.832 72.071,102.086 72.167,102.434 72.167 C 102.746 72.167,103.000 72.242,103.000 72.333 C 103.000 72.440,104.528 72.500,107.250 72.500 C 109.972 72.500,111.500 72.440,111.500 72.333 C 111.500 72.242,111.765 72.167,112.089 72.167 C 112.458 72.167,112.713 72.074,112.773 71.917 C 112.832 71.762,113.086 71.667,113.434 71.667 C 113.746 71.667,114.000 71.592,114.000 71.500 C 114.000 71.408,114.188 71.333,114.417 71.333 C 114.676 71.333,114.833 71.239,114.833 71.083 C 114.833 70.939,114.984 70.833,115.189 70.833 C 115.384 70.833,115.666 70.694,115.814 70.524 C 115.962 70.354,116.252 70.161,116.458 70.096 C 116.665 70.031,116.833 69.908,116.833 69.822 C 116.833 69.737,116.914 69.667,117.012 69.667 C 117.243 69.667,117.667 69.243,117.667 69.012 C 117.667 68.914,117.747 68.833,117.845 68.833 C 118.076 68.833,118.500 68.409,118.500 68.179 C 118.500 68.080,118.580 68.000,118.679 68.000 C 118.949 68.000,119.333 67.559,119.333 67.249 C 119.333 66.950,118.122 65.667,117.840 65.667 C 117.745 65.667,117.667 65.586,117.667 65.488 C 117.667 65.257,117.243 64.833,117.012 64.833 C 116.914 64.833,116.833 64.753,116.833 64.655 C 116.833 64.424,116.409 64.000,116.179 64.000 C 116.080 64.000,116.000 63.924,116.000 63.832 C 116.000 62.970,114.565 62.450,113.932 63.083 C 113.703 63.313,113.437 63.500,113.341 63.500 C 113.245 63.500,113.167 63.580,113.167 63.679 C 113.167 63.973,112.714 64.333,112.345 64.333 C 112.149 64.333,112.000 64.442,112.000 64.583 C 112.000 64.739,111.843 64.833,111.583 64.833 C 111.354 64.833,111.167 64.908,111.167 65.000 C 111.167 65.092,111.014 65.167,110.828 65.167 C 110.642 65.167,110.446 65.279,110.394 65.417 C 110.334 65.571,110.081 65.667,109.732 65.667 C 109.421 65.667,109.167 65.742,109.167 65.833 C 109.167 65.934,108.448 66.000,107.343 66.000 C 106.307 66.000,105.475 65.928,105.417 65.833 C 105.360 65.742,105.056 65.667,104.740 65.667 C 104.341 65.667,104.167 65.590,104.167 65.417 C 104.167 65.268,104.014 65.167,103.790 65.167 C 103.582 65.167,103.272 64.979,103.100 64.750 C 102.927 64.521,102.647 64.333,102.477 64.333 C 102.306 64.333,102.167 64.258,102.167 64.167 C 102.167 64.075,102.054 64.000,101.917 64.000 C 101.779 64.000,101.667 63.887,101.667 63.750 C 101.667 63.612,101.592 63.500,101.500 63.500 C 101.408 63.500,101.333 63.377,101.333 63.227 C 101.333 63.078,101.146 62.781,100.917 62.569 C 100.688 62.356,100.500 62.029,100.500 61.841 C 100.500 61.654,100.425 61.500,100.333 61.500 C 100.242 61.500,100.167 61.348,100.167 61.161 C 100.167 60.975,100.054 60.780,99.917 60.727 C 99.762 60.668,99.667 60.414,99.667 60.066 C 99.667 59.754,99.592 59.500,99.500 59.500 C 99.398 59.500,99.333 58.694,99.333 57.417 C 99.333 56.139,99.398 55.333,99.500 55.333 C 99.592 55.333,99.667 55.079,99.667 54.768 C 99.667 54.419,99.762 54.166,99.917 54.106 C 100.054 54.054,100.167 53.858,100.167 53.672 C 100.167 53.486,100.242 53.333,100.333 53.333 C 100.425 53.333,100.500 53.146,100.500 52.917 C 100.500 52.657,100.594 52.500,100.750 52.500 C 100.888 52.500,101.000 52.387,101.000 52.250 C 101.000 52.112,101.075 52.000,101.167 52.000 C 101.258 52.000,101.333 51.850,101.333 51.667 C 101.333 51.483,101.408 51.333,101.500 51.333 C 101.592 51.333,101.667 51.221,101.667 51.083 C 101.667 50.928,101.824 50.833,102.083 50.833 C 102.313 50.833,102.500 50.758,102.500 50.667 C 102.500 50.575,102.612 50.500,102.750 50.500 C 102.888 50.500,103.000 50.420,103.000 50.321 C 103.000 50.027,103.452 49.667,103.821 49.667 C 104.017 49.667,104.167 49.558,104.167 49.417 C 104.167 49.236,104.352 49.167,104.833 49.167 C 105.200 49.167,105.500 49.092,105.500 49.000 C 105.500 48.899,106.222 48.833,107.333 48.833 C 108.444 48.833,109.167 48.899,109.167 49.000 C 109.167 49.092,109.429 49.167,109.750 49.167 C 110.157 49.167,110.333 49.242,110.333 49.417 C 110.333 49.572,110.491 49.667,110.750 49.667 C 110.979 49.667,111.167 49.742,111.167 49.833 C 111.167 49.925,111.354 50.000,111.583 50.000 C 111.813 50.000,112.000 50.085,112.000 50.190 C 112.000 50.446,112.515 50.821,112.875 50.828 C 113.035 50.831,113.167 50.946,113.167 51.083 C 113.167 51.221,113.261 51.333,113.377 51.333 C 113.493 51.333,113.728 51.521,113.900 51.750 C 114.255 52.222,114.692 52.285,115.060 51.917 C 115.197 51.779,115.390 51.667,115.488 51.667 C 115.586 51.667,115.667 51.511,115.667 51.321 C 115.667 50.952,116.027 50.500,116.321 50.500 C 116.420 50.500,116.500 50.420,116.500 50.321 C 116.500 50.091,116.924 49.667,117.155 49.667 C 117.253 49.667,117.333 49.587,117.333 49.489 C 117.333 49.391,117.596 49.063,117.917 48.761 C 118.237 48.458,118.500 48.096,118.500 47.956 C 118.500 47.817,118.612 47.659,118.750 47.606 C 119.508 47.315,117.773 44.833,116.811 44.833 C 116.640 44.833,116.500 44.721,116.500 44.583 C 116.500 44.446,116.388 44.333,116.250 44.333 C 116.112 44.333,116.000 44.258,116.000 44.167 C 116.000 44.075,115.858 44.000,115.684 44.000 C 115.511 44.000,115.326 43.887,115.273 43.750 C 115.220 43.612,114.987 43.500,114.755 43.500 C 114.523 43.500,114.333 43.425,114.333 43.333 C 114.333 43.242,114.071 43.167,113.750 43.167 C 113.343 43.167,113.167 43.091,113.167 42.917 C 113.167 42.728,112.963 42.667,112.333 42.667 C 111.875 42.667,111.500 42.592,111.500 42.500 C 111.500 42.393,110.028 42.333,107.417 42.333 C 104.806 42.333,103.333 42.393,103.333 42.500 M194.667 42.500 C 194.667 42.593,194.222 42.667,193.667 42.667 C 192.889 42.667,192.667 42.722,192.667 42.917 C 192.667 43.091,192.491 43.167,192.083 43.167 C 191.762 43.167,191.500 43.242,191.500 43.333 C 191.500 43.425,191.313 43.500,191.083 43.500 C 190.824 43.500,190.667 43.594,190.667 43.750 C 190.667 43.906,190.509 44.000,190.250 44.000 C 190.021 44.000,189.833 44.075,189.833 44.167 C 189.833 44.258,189.646 44.333,189.417 44.333 C 189.157 44.333,189.000 44.428,189.000 44.583 C 189.000 44.739,188.843 44.833,188.583 44.833 C 188.354 44.833,188.167 44.908,188.167 45.000 C 188.167 45.092,188.086 45.167,187.988 45.167 C 187.757 45.167,187.333 45.591,187.333 45.821 C 187.333 45.920,187.253 46.000,187.155 46.000 C 186.961 46.000,186.500 46.410,186.500 46.583 C 186.500 46.756,186.039 47.167,185.845 47.167 C 185.747 47.167,185.667 47.247,185.667 47.345 C 185.667 47.576,185.243 48.000,185.012 48.000 C 184.914 48.000,184.833 48.112,184.833 48.250 C 184.833 48.387,184.758 48.500,184.667 48.500 C 184.575 48.500,184.500 48.639,184.500 48.810 C 184.500 48.980,184.313 49.261,184.083 49.433 C 183.854 49.605,183.667 49.883,183.667 50.051 C 183.667 50.220,183.554 50.470,183.417 50.607 C 183.279 50.745,183.167 51.039,183.167 51.262 C 183.167 51.485,183.092 51.667,183.000 51.667 C 182.908 51.667,182.833 51.967,182.833 52.333 C 182.833 52.815,182.764 53.000,182.583 53.000 C 182.399 53.000,182.333 53.193,182.333 53.740 C 182.333 54.147,182.258 54.527,182.167 54.583 C 182.065 54.646,182.000 55.918,182.000 57.843 C 182.000 59.837,182.061 61.000,182.167 61.000 C 182.258 61.000,182.333 61.340,182.333 61.755 C 182.333 62.273,182.412 62.541,182.583 62.606 C 182.736 62.665,182.833 62.918,182.833 63.258 C 182.833 63.564,182.908 63.860,183.000 63.917 C 183.092 63.973,183.167 64.157,183.167 64.325 C 183.167 64.493,183.279 64.674,183.417 64.727 C 183.554 64.780,183.667 64.926,183.667 65.052 C 183.667 65.391,184.166 66.333,184.346 66.333 C 184.430 66.333,184.500 66.414,184.500 66.512 C 184.500 66.743,184.924 67.167,185.155 67.167 C 185.253 67.167,185.333 67.354,185.333 67.583 C 185.333 67.813,185.408 68.000,185.500 68.000 C 185.592 68.000,185.667 68.112,185.667 68.250 C 185.667 68.387,185.747 68.500,185.845 68.500 C 185.942 68.500,186.270 68.762,186.573 69.083 C 186.875 69.404,187.202 69.667,187.299 69.667 C 187.397 69.667,187.755 69.929,188.095 70.250 C 188.435 70.571,188.845 70.833,189.005 70.833 C 189.166 70.833,189.341 70.946,189.394 71.083 C 189.446 71.221,189.642 71.333,189.828 71.333 C 190.014 71.333,190.167 71.408,190.167 71.500 C 190.167 71.592,190.346 71.667,190.566 71.667 C 190.785 71.667,191.008 71.779,191.060 71.917 C 191.116 72.061,191.365 72.167,191.652 72.167 C 191.924 72.167,192.193 72.242,192.250 72.333 C 192.307 72.425,192.678 72.500,193.075 72.500 C 193.564 72.500,193.829 72.581,193.894 72.750 C 193.974 72.961,194.515 73.000,197.333 73.000 C 200.152 73.000,200.692 72.961,200.773 72.750 C 200.840 72.575,201.113 72.500,201.684 72.500 C 202.133 72.500,202.500 72.425,202.500 72.333 C 202.500 72.242,202.762 72.167,203.083 72.167 C 203.491 72.167,203.667 72.091,203.667 71.917 C 203.667 71.761,203.824 71.667,204.083 71.667 C 204.313 71.667,204.500 71.592,204.500 71.500 C 204.500 71.408,204.688 71.333,204.917 71.333 C 205.176 71.333,205.333 71.239,205.333 71.083 C 205.333 70.939,205.484 70.833,205.689 70.833 C 205.884 70.833,206.166 70.694,206.314 70.524 C 206.462 70.354,206.752 70.161,206.958 70.096 C 207.165 70.031,207.333 69.908,207.333 69.822 C 207.333 69.737,207.433 69.667,207.555 69.667 C 207.677 69.667,207.877 69.479,208.000 69.250 C 208.123 69.021,208.291 68.833,208.373 68.833 C 208.581 68.833,209.000 68.396,209.000 68.179 C 209.000 68.080,209.075 68.000,209.167 68.000 C 209.859 68.000,209.263 66.907,207.750 65.404 C 206.879 64.539,206.167 63.756,206.167 63.665 C 206.167 63.574,206.054 63.500,205.917 63.500 C 205.779 63.500,205.667 63.425,205.667 63.333 C 205.667 63.242,205.329 63.167,204.917 63.167 C 204.504 63.167,204.167 63.242,204.167 63.333 C 204.167 63.425,204.054 63.500,203.917 63.500 C 203.779 63.500,203.667 63.580,203.667 63.679 C 203.667 63.973,203.214 64.333,202.845 64.333 C 202.649 64.333,202.500 64.442,202.500 64.583 C 202.500 64.721,202.387 64.833,202.250 64.833 C 202.112 64.833,202.000 64.908,202.000 65.000 C 202.000 65.092,201.848 65.167,201.661 65.167 C 201.475 65.167,201.280 65.279,201.227 65.417 C 201.168 65.571,200.914 65.667,200.566 65.667 C 200.254 65.667,200.000 65.742,200.000 65.833 C 200.000 65.925,199.667 66.000,199.260 66.000 C 198.853 66.000,198.473 66.075,198.417 66.167 C 198.360 66.258,197.868 66.333,197.323 66.333 C 196.774 66.333,196.333 66.259,196.333 66.167 C 196.333 66.075,195.958 66.000,195.500 66.000 C 195.042 66.000,194.667 65.925,194.667 65.833 C 194.667 65.742,194.479 65.667,194.250 65.667 C 194.021 65.667,193.833 65.581,193.833 65.477 C 193.833 65.221,193.319 64.845,192.958 64.839 C 192.798 64.836,192.667 64.721,192.667 64.583 C 192.667 64.446,192.586 64.333,192.488 64.333 C 192.257 64.333,191.833 63.909,191.833 63.679 C 191.833 63.580,191.753 63.500,191.655 63.500 C 191.361 63.500,191.000 63.048,191.000 62.679 C 191.000 62.489,190.933 62.333,190.851 62.333 C 190.770 62.333,190.656 62.146,190.598 61.917 C 190.541 61.688,190.420 61.500,190.330 61.500 C 190.240 61.500,190.167 61.313,190.167 61.083 C 190.167 60.854,190.092 60.667,190.000 60.667 C 189.908 60.667,189.833 60.327,189.833 59.911 C 189.833 59.394,189.755 59.126,189.583 59.060 C 189.389 58.986,189.333 58.657,189.333 57.583 C 189.333 56.510,189.389 56.181,189.583 56.106 C 189.755 56.041,189.833 55.773,189.833 55.255 C 189.833 54.840,189.908 54.500,190.000 54.500 C 190.092 54.500,190.167 54.313,190.167 54.083 C 190.167 53.854,190.238 53.667,190.326 53.667 C 190.413 53.667,190.609 53.404,190.761 53.083 C 190.913 52.762,191.104 52.500,191.186 52.500 C 191.267 52.500,191.333 52.313,191.333 52.083 C 191.333 51.854,191.414 51.667,191.512 51.667 C 191.743 51.667,192.167 51.243,192.167 51.012 C 192.167 50.914,192.279 50.833,192.417 50.833 C 192.554 50.833,192.667 50.758,192.667 50.667 C 192.667 50.575,192.854 50.500,193.083 50.500 C 193.343 50.500,193.500 50.406,193.500 50.250 C 193.500 50.111,193.648 50.000,193.833 50.000 C 194.017 50.000,194.167 49.925,194.167 49.833 C 194.167 49.742,194.357 49.667,194.589 49.667 C 194.821 49.667,195.054 49.554,195.106 49.417 C 195.176 49.234,195.464 49.167,196.171 49.167 C 196.793 49.167,197.166 49.092,197.215 48.958 C 197.276 48.792,197.336 48.792,197.512 48.958 C 197.637 49.076,198.156 49.167,198.700 49.167 C 199.448 49.167,199.667 49.223,199.667 49.417 C 199.667 49.591,199.843 49.667,200.250 49.667 C 200.571 49.667,200.833 49.742,200.833 49.833 C 200.833 49.925,201.021 50.000,201.250 50.000 C 201.509 50.000,201.667 50.094,201.667 50.250 C 201.667 50.392,201.816 50.500,202.011 50.500 C 202.201 50.500,202.603 50.762,202.906 51.083 C 203.208 51.404,203.616 51.667,203.811 51.667 C 204.016 51.667,204.167 51.773,204.167 51.917 C 204.167 52.091,204.343 52.167,204.750 52.167 C 205.071 52.167,205.333 52.086,205.333 51.988 C 205.333 51.757,205.757 51.333,205.988 51.333 C 206.086 51.333,206.167 51.253,206.167 51.155 C 206.167 50.924,206.591 50.500,206.821 50.500 C 206.920 50.500,207.000 50.420,207.000 50.322 C 207.000 50.224,207.262 49.897,207.583 49.594 C 207.904 49.292,208.167 48.955,208.167 48.847 C 208.167 48.739,208.354 48.477,208.583 48.265 C 208.813 48.052,209.000 47.793,209.000 47.689 C 209.000 47.585,209.075 47.500,209.167 47.500 C 209.258 47.500,209.333 47.375,209.333 47.221 C 209.333 46.903,207.935 45.500,207.617 45.500 C 207.502 45.500,207.299 45.350,207.167 45.167 C 207.035 44.983,206.830 44.833,206.713 44.833 C 206.596 44.833,206.500 44.721,206.500 44.583 C 206.500 44.428,206.343 44.333,206.083 44.333 C 205.854 44.333,205.667 44.258,205.667 44.167 C 205.667 44.075,205.479 44.000,205.250 44.000 C 204.991 44.000,204.833 43.906,204.833 43.750 C 204.833 43.575,204.657 43.500,204.250 43.500 C 203.929 43.500,203.667 43.425,203.667 43.333 C 203.667 43.242,203.412 43.167,203.101 43.167 C 202.752 43.167,202.499 43.071,202.440 42.917 C 202.369 42.733,202.078 42.667,201.339 42.667 C 200.780 42.667,200.333 42.593,200.333 42.500 C 200.333 42.395,199.278 42.333,197.500 42.333 C 195.722 42.333,194.667 42.395,194.667 42.500 M123.500 57.413 L 123.500 72.167 127.167 72.167 L 130.833 72.167 130.833 66.417 L 130.833 60.667 136.167 60.667 L 141.500 60.667 141.500 66.587 L 141.500 72.507 145.125 72.462 L 148.750 72.417 148.793 57.542 L 148.835 42.667 145.168 42.667 L 141.500 42.667 141.500 48.417 L 141.500 54.167 136.169 54.167 L 130.838 54.167 130.794 48.458 L 130.750 42.750 127.125 42.705 L 123.500 42.660 123.500 57.413 M155.833 53.062 C 155.833 62.151,155.802 63.486,155.581 63.669 C 155.364 63.848,155.334 64.498,155.372 68.148 L 155.417 72.417 166.875 72.459 L 178.333 72.502 178.333 69.251 L 178.333 66.000 170.500 66.000 L 162.667 66.000 162.667 63.333 L 162.667 60.667 169.504 60.667 L 176.341 60.667 176.295 57.458 L 176.250 54.250 169.458 54.206 L 162.667 54.163 162.667 51.665 L 162.667 49.167 170.504 49.167 L 178.341 49.167 178.295 45.958 L 178.250 42.750 167.042 42.707 L 155.833 42.664 155.833 53.062 M213.500 47.997 C 213.500 51.443,213.441 53.333,213.333 53.333 C 213.224 53.333,213.167 56.639,213.167 62.917 L 213.167 72.500 216.833 72.500 L 220.500 72.500 220.500 68.071 C 220.500 63.549,220.551 63.167,221.155 63.167 C 221.253 63.167,221.333 63.095,221.333 63.007 C 221.333 62.800,223.091 61.000,223.293 61.000 C 223.562 61.000,224.167 61.611,224.167 61.882 C 224.167 62.025,224.354 62.290,224.583 62.470 C 224.813 62.650,225.000 62.881,225.000 62.982 C 225.000 63.084,225.075 63.167,225.167 63.167 C 225.258 63.167,225.333 63.306,225.333 63.477 C 225.333 63.647,225.521 63.927,225.750 64.100 C 225.979 64.272,226.168 64.526,226.170 64.665 C 226.171 64.803,226.359 65.093,226.586 65.309 C 226.814 65.525,227.000 65.769,227.000 65.851 C 227.000 65.933,227.112 66.000,227.250 66.000 C 227.387 66.000,227.502 66.131,227.505 66.292 C 227.512 66.652,227.887 67.167,228.143 67.167 C 228.248 67.167,228.333 67.279,228.333 67.417 C 228.333 67.554,228.408 67.667,228.500 67.667 C 228.592 67.667,228.667 67.811,228.667 67.988 C 228.667 68.165,228.854 68.457,229.083 68.637 C 229.313 68.817,229.500 69.095,229.500 69.254 C 229.500 69.414,229.762 69.792,230.083 70.094 C 230.404 70.397,230.667 70.721,230.667 70.815 C 230.667 70.908,230.847 71.165,231.066 71.385 C 231.286 71.604,231.493 71.927,231.527 72.100 C 231.625 72.611,240.500 72.679,240.500 72.169 C 240.500 71.985,240.425 71.833,240.333 71.833 C 240.242 71.833,240.167 71.721,240.167 71.583 C 240.167 71.446,240.054 71.333,239.917 71.333 C 239.775 71.333,239.667 71.184,239.667 70.988 C 239.667 70.619,239.306 70.167,239.012 70.167 C 238.914 70.167,238.833 70.054,238.833 69.917 C 238.833 69.779,238.758 69.667,238.667 69.667 C 238.575 69.667,238.500 69.527,238.500 69.357 C 238.500 69.186,238.313 68.906,238.083 68.734 C 237.854 68.562,237.667 68.326,237.667 68.210 C 237.667 68.095,237.592 68.000,237.500 68.000 C 237.408 68.000,237.333 67.905,237.333 67.790 C 237.333 67.674,237.146 67.378,236.917 67.131 C 236.688 66.883,236.500 66.606,236.500 66.515 C 236.500 66.423,236.313 66.161,236.083 65.932 C 235.854 65.703,235.667 65.437,235.667 65.341 C 235.667 65.245,235.554 65.167,235.417 65.167 C 235.279 65.167,235.164 65.035,235.161 64.875 C 235.155 64.515,234.779 64.000,234.523 64.000 C 234.419 64.000,234.333 63.887,234.333 63.750 C 234.333 63.612,234.258 63.500,234.167 63.500 C 234.075 63.500,234.000 63.350,234.000 63.167 C 234.000 62.981,233.889 62.833,233.750 62.833 C 233.612 62.833,233.500 62.721,233.500 62.583 C 233.500 62.446,233.434 62.333,233.352 62.333 C 233.271 62.333,233.080 62.071,232.928 61.750 C 232.776 61.429,232.580 61.167,232.492 61.167 C 232.405 61.167,232.333 61.086,232.333 60.988 C 232.333 60.757,231.909 60.333,231.679 60.333 C 231.580 60.333,231.500 60.173,231.500 59.977 C 231.500 59.782,231.313 59.448,231.083 59.235 C 230.854 59.023,230.667 58.733,230.667 58.591 C 230.667 58.449,230.592 58.333,230.500 58.333 C 230.408 58.333,230.333 58.221,230.333 58.083 C 230.333 57.946,230.253 57.833,230.155 57.833 C 229.887 57.833,229.500 57.394,229.500 57.090 C 229.500 56.943,229.387 56.780,229.250 56.727 C 229.112 56.674,229.000 56.527,229.000 56.399 C 229.000 56.271,228.933 56.167,228.851 56.167 C 228.575 56.167,228.512 55.678,228.757 55.433 C 228.891 55.300,229.000 55.035,229.000 54.845 C 229.000 54.655,229.080 54.500,229.179 54.500 C 229.409 54.500,229.833 54.076,229.833 53.845 C 229.833 53.747,229.929 53.667,230.047 53.667 C 230.164 53.667,230.368 53.517,230.500 53.333 C 230.632 53.150,230.836 53.000,230.953 53.000 C 231.071 53.000,231.167 52.924,231.167 52.832 C 231.167 52.740,231.692 52.146,232.333 51.511 C 232.975 50.877,233.500 50.278,233.500 50.179 C 233.500 50.081,233.580 50.000,233.679 50.000 C 233.909 50.000,234.333 49.576,234.333 49.345 C 234.333 49.247,234.412 49.167,234.508 49.167 C 234.736 49.167,238.000 45.903,238.000 45.675 C 238.000 45.579,238.080 45.500,238.179 45.500 C 238.409 45.500,238.833 45.076,238.833 44.845 C 238.833 44.747,238.914 44.667,239.012 44.667 C 239.350 44.667,239.667 44.189,239.667 43.679 L 239.667 43.167 235.417 43.167 C 232.694 43.167,231.167 43.227,231.167 43.333 C 231.167 43.425,231.054 43.500,230.917 43.500 C 230.779 43.500,230.667 43.580,230.667 43.679 C 230.667 43.909,230.243 44.333,230.012 44.333 C 229.914 44.333,229.833 44.412,229.833 44.507 C 229.833 44.603,229.196 45.310,228.417 46.079 C 227.637 46.847,227.000 47.594,227.000 47.738 C 227.000 47.882,226.925 48.000,226.833 48.000 C 226.742 48.000,226.667 48.112,226.667 48.250 C 226.667 48.387,226.593 48.500,226.503 48.500 C 226.282 48.500,223.833 50.938,223.833 51.158 C 223.833 51.254,223.753 51.333,223.655 51.333 C 223.469 51.333,223.000 51.741,223.000 51.903 C 223.000 51.954,222.700 52.278,222.334 52.623 C 221.967 52.968,221.667 53.344,221.667 53.458 C 221.667 53.573,221.592 53.667,221.500 53.667 C 221.408 53.667,221.333 53.779,221.333 53.917 C 221.333 54.054,221.221 54.167,221.083 54.167 C 220.946 54.167,220.833 54.242,220.833 54.333 C 220.833 54.425,220.759 54.500,220.669 54.500 C 220.564 54.500,220.488 52.350,220.460 48.625 L 220.417 42.750 216.958 42.705 L 213.500 42.660 213.500 47.997 " stroke="none" fill="#040404" fill-rule="evenodd"></path><path id="path4" d="M33.208 14.610 C 32.923 14.726,32.946 14.944,33.243 14.944 C 33.376 14.944,33.524 14.844,33.571 14.722 C 33.659 14.493,33.568 14.465,33.208 14.610 M35.544 14.620 C 35.797 14.658,36.172 14.657,36.377 14.617 C 36.582 14.578,36.375 14.546,35.917 14.548 C 35.458 14.549,35.291 14.581,35.544 14.620 M43.167 15.583 C 43.281 15.721,43.571 15.825,43.812 15.814 C 44.157 15.799,44.179 15.778,43.917 15.714 C 43.733 15.670,43.512 15.567,43.425 15.484 C 43.161 15.233,42.945 15.316,43.167 15.583 M44.500 16.000 C 44.500 16.092,44.654 16.167,44.843 16.167 C 45.032 16.167,45.140 16.092,45.083 16.000 C 45.027 15.908,44.872 15.833,44.740 15.833 C 44.608 15.833,44.500 15.908,44.500 16.000 M46.875 16.615 C 47.035 16.657,47.167 16.761,47.167 16.846 C 47.167 16.930,47.288 17.000,47.437 17.000 C 47.659 17.000,47.670 16.955,47.500 16.750 C 47.386 16.612,47.133 16.509,46.938 16.519 C 46.656 16.535,46.643 16.554,46.875 16.615 M48.105 17.201 C 48.219 17.386,48.667 17.367,48.667 17.177 C 48.667 17.091,48.522 17.032,48.345 17.045 C 48.168 17.058,48.060 17.129,48.105 17.201 M49.165 17.581 C 49.278 17.718,49.446 17.784,49.537 17.727 C 49.637 17.665,49.613 17.569,49.476 17.482 C 49.117 17.254,48.940 17.311,49.165 17.581 M50.934 18.403 C 50.990 18.548,51.109 18.667,51.198 18.667 C 51.417 18.667,51.280 18.288,51.031 18.205 C 50.909 18.164,50.872 18.240,50.934 18.403 M52.440 19.250 C 52.492 19.387,52.640 19.500,52.768 19.500 C 52.896 19.500,53.000 19.579,53.000 19.677 C 53.000 19.774,53.073 19.808,53.162 19.753 C 53.251 19.698,53.456 19.806,53.616 19.993 C 53.954 20.388,54.167 20.431,54.167 20.104 C 54.167 19.977,53.923 19.775,53.625 19.655 C 53.327 19.535,53.023 19.338,52.950 19.218 C 52.763 18.911,52.320 18.939,52.440 19.250 M54.333 20.329 C 54.333 20.535,54.769 20.842,54.890 20.721 C 55.085 20.526,55.008 20.374,54.667 20.285 C 54.483 20.237,54.333 20.257,54.333 20.329 M14.763 21.009 C 14.296 21.480,14.509 21.528,14.996 21.062 C 15.224 20.844,15.336 20.671,15.246 20.677 C 15.157 20.682,14.939 20.832,14.763 21.009 M54.625 21.721 C 54.373 21.927,54.167 22.191,54.167 22.308 C 54.167 22.424,54.092 22.473,54.000 22.417 C 53.904 22.357,53.833 22.512,53.833 22.782 L 53.834 23.250 54.417 22.595 C 54.738 22.234,55.000 21.874,55.000 21.793 C 55.000 21.713,55.067 21.688,55.149 21.739 C 55.231 21.790,55.341 21.719,55.394 21.582 C 55.533 21.220,55.154 21.288,54.625 21.721 M13.597 21.843 C 13.420 22.020,13.320 22.209,13.374 22.263 C 13.468 22.357,14.167 21.757,14.167 21.583 C 14.167 21.412,13.906 21.530,13.597 21.843 M11.205 24.000 C 11.091 24.183,11.041 24.333,11.094 24.333 C 11.219 24.333,11.667 23.886,11.667 23.762 C 11.667 23.550,11.401 23.687,11.205 24.000 M10.560 24.583 C 10.508 24.721,10.392 24.833,10.304 24.833 C 10.102 24.833,9.667 25.260,9.667 25.457 C 9.667 25.539,9.394 25.847,9.061 26.142 C 8.728 26.436,8.498 26.720,8.549 26.772 C 8.658 26.880,10.833 24.694,10.833 24.477 C 10.833 24.246,10.665 24.312,10.560 24.583 M7.354 28.172 C 7.067 28.458,6.836 28.780,6.839 28.888 C 6.842 28.995,6.944 28.952,7.065 28.792 C 7.187 28.631,7.372 28.500,7.477 28.500 C 7.581 28.500,7.667 28.394,7.667 28.264 C 7.667 28.134,7.760 27.994,7.875 27.953 C 7.990 27.912,8.036 27.828,7.979 27.765 C 7.921 27.703,7.640 27.886,7.354 28.172 M6.287 29.502 C 6.012 29.823,5.907 30.167,6.083 30.167 C 6.236 30.167,6.833 29.503,6.833 29.333 C 6.833 29.067,6.597 29.140,6.287 29.502 M27.012 29.889 C 26.935 29.965,26.113 30.025,25.186 30.022 C 23.820 30.017,23.500 30.062,23.500 30.258 C 23.500 30.403,23.338 30.500,23.093 30.500 C 22.869 30.500,22.635 30.583,22.572 30.684 C 22.493 30.813,22.417 30.801,22.320 30.645 C 22.204 30.458,22.091 30.459,21.632 30.650 C 21.330 30.775,20.853 30.897,20.571 30.920 C 20.290 30.944,19.749 31.121,19.370 31.315 C 18.990 31.508,18.595 31.667,18.490 31.667 C 18.306 31.667,17.380 32.038,16.794 32.347 C 16.635 32.431,16.320 32.500,16.095 32.500 C 15.870 32.500,15.643 32.570,15.590 32.656 C 15.473 32.845,14.521 33.333,14.266 33.334 C 14.166 33.335,13.858 33.454,13.583 33.599 C 13.308 33.745,12.690 34.012,12.208 34.194 C 11.727 34.375,11.333 34.587,11.333 34.665 C 11.333 34.742,10.977 34.933,10.542 35.088 C 10.106 35.243,9.532 35.450,9.266 35.549 C 8.999 35.648,8.566 35.940,8.302 36.198 C 8.038 36.456,7.745 36.667,7.652 36.667 C 7.559 36.667,7.206 36.854,6.869 37.083 C 6.532 37.313,6.138 37.500,5.993 37.500 C 5.848 37.500,5.569 37.650,5.372 37.833 C 5.175 38.017,4.861 38.167,4.674 38.167 C 4.486 38.167,4.333 38.237,4.333 38.322 C 4.333 38.408,4.165 38.527,3.958 38.587 C 3.164 38.819,2.667 39.090,2.667 39.291 C 2.667 39.406,2.554 39.500,2.417 39.500 C 2.136 39.500,2.076 39.076,2.333 38.917 C 2.425 38.860,2.500 38.553,2.500 38.235 C 2.500 37.902,2.596 37.619,2.725 37.570 C 3.017 37.458,2.876 36.667,2.564 36.667 C 2.437 36.667,2.333 36.811,2.333 36.986 C 2.333 37.162,2.208 37.556,2.055 37.861 C 1.530 38.910,1.500 38.997,1.500 39.477 C 1.500 39.742,1.388 40.053,1.250 40.167 C 1.108 40.285,1.000 40.648,1.000 41.011 C 1.000 41.361,0.925 41.693,0.833 41.750 C 0.742 41.807,0.666 42.205,0.664 42.635 C 0.663 43.065,0.545 43.751,0.403 44.161 C 0.106 45.012,-0.174 52.793,0.098 52.627 C 0.182 52.576,0.257 52.893,0.266 53.331 C 0.276 53.831,0.415 54.342,0.639 54.705 C 0.835 55.022,0.940 55.343,0.873 55.418 C 0.805 55.492,1.150 55.241,1.640 54.860 C 2.129 54.479,2.664 54.167,2.829 54.167 C 2.993 54.167,3.165 54.025,3.210 53.851 C 3.259 53.664,3.505 53.489,3.813 53.421 C 4.099 53.358,4.333 53.238,4.333 53.153 C 4.333 53.069,4.414 53.000,4.512 53.000 C 4.610 53.000,4.795 52.906,4.923 52.792 C 5.474 52.297,5.663 52.167,5.826 52.167 C 5.922 52.167,6.000 52.106,6.000 52.032 C 6.000 51.885,7.162 51.333,7.473 51.333 C 7.579 51.333,7.667 51.253,7.667 51.155 C 7.667 50.885,8.107 50.500,8.417 50.500 C 8.726 50.500,9.167 50.115,9.167 49.845 C 9.167 49.747,9.245 49.667,9.340 49.667 C 9.436 49.667,9.605 49.590,9.715 49.496 C 9.826 49.402,10.291 49.083,10.749 48.787 C 11.207 48.492,11.711 48.121,11.870 47.963 C 12.028 47.804,12.348 47.628,12.579 47.570 C 13.041 47.454,13.097 47.330,12.814 47.047 C 12.677 46.910,12.678 46.802,12.817 46.639 C 13.461 45.883,13.667 45.599,13.667 45.465 C 13.667 45.382,13.742 45.360,13.833 45.417 C 13.925 45.473,14.000 45.411,14.000 45.278 C 14.000 45.145,14.112 44.992,14.250 44.940 C 14.387 44.887,14.500 44.763,14.500 44.664 C 14.500 44.565,14.762 44.213,15.083 43.883 C 15.404 43.552,15.667 43.219,15.667 43.141 C 15.667 43.063,15.752 43.000,15.857 43.000 C 16.092 43.000,16.488 42.496,16.495 42.188 C 16.498 42.063,16.834 41.640,17.242 41.249 C 17.650 40.859,17.937 40.493,17.881 40.436 C 17.824 40.380,17.865 40.333,17.972 40.333 C 18.079 40.333,18.167 40.259,18.167 40.168 C 18.167 40.076,18.538 39.623,18.992 39.159 C 19.445 38.696,19.820 38.283,19.825 38.242 C 19.830 38.200,19.833 38.092,19.833 38.000 C 19.833 37.908,19.946 37.833,20.083 37.833 C 20.221 37.833,20.333 37.897,20.333 37.974 C 20.333 38.051,20.596 38.256,20.917 38.428 C 21.237 38.601,21.500 38.800,21.500 38.871 C 21.500 38.942,21.613 39.000,21.750 39.000 C 21.887 39.000,22.000 39.074,22.000 39.163 C 22.000 39.253,22.188 39.374,22.417 39.432 C 22.646 39.489,22.833 39.591,22.833 39.658 C 22.833 39.726,23.091 39.920,23.406 40.089 C 23.722 40.259,23.947 40.452,23.906 40.517 C 23.866 40.582,23.983 40.596,24.166 40.548 C 24.350 40.500,24.500 40.543,24.500 40.643 C 24.500 40.871,25.350 41.312,25.610 41.218 C 25.716 41.180,25.847 41.221,25.902 41.310 C 25.965 41.411,26.189 41.400,26.508 41.279 C 26.923 41.123,27.043 41.133,27.172 41.336 C 27.277 41.502,27.329 41.515,27.331 41.375 C 27.332 41.246,27.571 41.167,27.958 41.167 C 28.302 41.167,28.967 41.021,29.437 40.842 C 29.906 40.664,30.666 40.483,31.125 40.440 C 31.584 40.398,32.186 40.246,32.463 40.102 C 32.906 39.874,32.991 39.872,33.170 40.088 C 33.435 40.406,33.833 40.404,33.833 40.083 C 33.833 39.896,34.053 39.827,34.708 39.808 C 35.888 39.774,35.958 39.764,36.099 39.623 C 36.167 39.555,36.402 39.500,36.622 39.500 C 36.842 39.500,37.182 39.414,37.378 39.309 C 37.645 39.166,37.750 39.166,37.798 39.309 C 37.887 39.577,38.254 39.546,38.500 39.250 C 38.620 39.105,38.984 39.000,39.365 39.000 C 39.726 39.000,40.154 38.929,40.316 38.843 C 40.478 38.756,41.156 38.642,41.824 38.589 C 42.491 38.535,43.171 38.420,43.335 38.332 C 43.544 38.221,43.657 38.235,43.713 38.381 C 43.757 38.495,44.008 38.699,44.271 38.833 C 44.844 39.125,46.050 39.874,46.167 40.011 C 46.212 40.064,46.362 40.160,46.500 40.224 C 46.637 40.288,47.275 40.636,47.917 40.997 C 50.447 42.423,53.513 43.720,52.417 42.901 C 52.233 42.764,51.910 42.609,51.697 42.555 C 51.352 42.469,49.544 41.579,48.494 40.979 C 48.274 40.853,47.701 40.469,47.221 40.125 C 46.740 39.781,46.304 39.500,46.250 39.500 C 46.196 39.500,45.950 39.313,45.703 39.083 C 45.456 38.854,45.193 38.667,45.119 38.667 C 45.046 38.667,44.791 38.486,44.553 38.266 C 44.316 38.046,43.931 37.764,43.698 37.641 C 43.466 37.518,42.973 37.135,42.603 36.792 C 42.234 36.448,41.853 36.166,41.757 36.165 C 41.583 36.164,41.172 35.423,41.161 35.092 C 41.152 34.794,40.544 34.167,40.265 34.167 C 40.119 34.167,40.000 34.054,40.000 33.917 C 40.000 33.779,39.904 33.667,39.787 33.667 C 39.670 33.667,39.465 33.517,39.333 33.333 C 39.201 33.150,39.010 33.000,38.909 33.000 C 38.808 33.000,38.549 32.813,38.333 32.583 C 38.118 32.354,37.842 32.167,37.721 32.167 C 37.599 32.167,37.500 32.054,37.500 31.917 C 37.500 31.761,37.343 31.667,37.083 31.667 C 36.854 31.667,36.667 31.592,36.667 31.500 C 36.667 31.408,36.554 31.333,36.417 31.333 C 36.279 31.333,36.167 31.221,36.167 31.083 C 36.167 30.724,35.503 30.765,35.487 31.125 C 35.476 31.355,35.453 31.364,35.377 31.170 C 35.184 30.678,34.843 30.500,34.095 30.500 C 33.529 30.500,33.333 30.436,33.333 30.250 C 33.333 30.062,33.133 30.000,32.528 30.000 C 32.085 30.000,31.666 29.944,31.597 29.875 C 31.424 29.703,27.185 29.716,27.012 29.889 M5.500 30.667 C 5.500 30.758,5.612 30.833,5.750 30.833 C 5.888 30.833,6.000 30.758,6.000 30.667 C 6.000 30.575,5.888 30.500,5.750 30.500 C 5.612 30.500,5.500 30.575,5.500 30.667 M51.333 31.083 C 51.333 31.221,51.455 31.333,51.604 31.333 C 51.825 31.333,51.837 31.288,51.667 31.083 C 51.553 30.946,51.431 30.833,51.396 30.833 C 51.362 30.833,51.333 30.946,51.333 31.083 M5.167 31.270 C 5.167 31.492,5.212 31.503,5.417 31.333 C 5.554 31.219,5.667 31.098,5.667 31.063 C 5.667 31.028,5.554 31.000,5.417 31.000 C 5.279 31.000,5.167 31.122,5.167 31.270 M4.715 32.000 C 4.667 32.183,4.562 32.333,4.481 32.333 C 4.400 32.333,4.333 32.440,4.333 32.570 C 4.333 32.867,3.793 33.831,3.625 33.832 C 3.556 33.833,3.500 34.015,3.500 34.236 C 3.500 34.458,3.444 34.664,3.375 34.694 C 2.926 34.894,2.519 36.500,2.917 36.500 C 3.081 36.500,3.167 36.335,3.167 36.018 C 3.167 35.750,3.274 35.494,3.409 35.443 C 3.549 35.389,3.622 35.203,3.583 35.000 C 3.544 34.797,3.618 34.611,3.758 34.557 C 3.891 34.506,4.000 34.322,4.000 34.149 C 4.000 33.975,4.075 33.833,4.167 33.833 C 4.258 33.833,4.333 33.646,4.333 33.417 C 4.333 33.188,4.430 33.000,4.548 33.000 C 4.666 33.000,4.775 32.832,4.790 32.627 C 4.806 32.423,4.897 32.229,4.993 32.197 C 5.224 32.120,5.217 31.667,4.984 31.667 C 4.884 31.667,4.763 31.817,4.715 32.000 M57.500 41.121 C 57.209 41.230,56.333 42.163,56.333 42.363 C 56.333 42.645,56.629 42.484,57.000 42.000 C 57.267 41.651,57.527 41.500,57.858 41.500 C 58.372 41.500,58.497 41.265,58.070 41.101 C 57.925 41.046,57.793 41.006,57.778 41.013 C 57.763 41.020,57.637 41.069,57.500 41.121 M58.708 41.708 C 58.746 41.823,58.993 41.924,59.256 41.934 C 59.519 41.943,59.762 42.037,59.797 42.142 C 59.832 42.247,59.974 42.333,60.111 42.333 C 60.572 42.333,60.245 41.967,59.577 41.735 C 58.757 41.449,58.621 41.445,58.708 41.708 M69.167 41.736 C 69.167 41.881,69.285 42.000,69.431 42.000 C 69.725 42.000,69.674 41.641,69.365 41.538 C 69.256 41.502,69.167 41.591,69.167 41.736 M53.364 42.250 C 53.259 42.479,53.201 42.667,53.234 42.667 C 53.268 42.667,53.418 42.479,53.568 42.250 C 53.718 42.021,53.776 41.833,53.697 41.833 C 53.618 41.833,53.468 42.021,53.364 42.250 M61.708 42.622 C 62.476 42.937,62.502 43.125,61.792 43.236 C 61.494 43.282,60.756 43.398,60.153 43.493 C 59.550 43.589,58.400 43.667,57.598 43.667 L 56.140 43.667 56.250 43.167 C 56.310 42.892,56.296 42.667,56.217 42.667 C 56.062 42.667,55.442 43.337,55.530 43.410 C 56.045 43.842,59.522 44.019,60.833 43.681 C 61.154 43.598,61.698 43.483,62.042 43.424 C 63.074 43.249,62.723 42.318,61.637 42.350 L 61.083 42.366 61.708 42.622 " stroke="none" fill="#e44992" fill-rule="evenodd"></path></g></svg>